<svg width="25" height="25" viewBox="0 0 25 25" fill="none" xmlns="http://www.w3.org/2000/svg">
<path d="M11.3984 4.5H4.39844C3.868 4.5 3.3593 4.71071 2.98422 5.08579C2.60915 5.46086 2.39844 5.96957 2.39844 6.5V20.5C2.39844 21.0304 2.60915 21.5391 2.98422 21.9142C3.3593 22.2893 3.868 22.5 4.39844 22.5H18.3984C18.9289 22.5 19.4376 22.2893 19.8127 21.9142C20.1877 21.5391 20.3984 21.0304 20.3984 20.5V13.5" stroke="black" stroke-width="2" stroke-linecap="round" stroke-linejoin="round"/>
<path d="M18.8984 2.99998C19.2963 2.60216 19.8358 2.37866 20.3984 2.37866C20.961 2.37866 21.5006 2.60216 21.8984 2.99998C22.2963 3.39781 22.5198 3.93737 22.5198 4.49998C22.5198 5.06259 22.2963 5.60216 21.8984 5.99998L12.3984 15.5L8.39844 16.5L9.39844 12.5L18.8984 2.99998Z" stroke="black" stroke-width="2" stroke-linecap="round" stroke-linejoin="round"/>
</svg>
