<svg width="41" height="48" viewBox="0 0 41 48" fill="none" xmlns="http://www.w3.org/2000/svg">
<path d="M17.6713 1.19813L18.1898 0.787002C18.6003 0.440792 19.054 0.375877 20.7823 0.375877C22.5106 0.354239 22.9427 0.440792 23.9365 1.19813L23.4396 4.09764C23.0507 6.41292 23.0075 7.04043 23.2236 7.25681C23.3748 7.40827 23.6773 7.5381 23.8717 7.51647C24.1093 7.51647 24.347 7.25681 24.455 6.82404C24.5846 6.43456 24.7791 5.37429 24.9087 4.48712C25.0383 3.59996 25.2328 2.7128 25.3408 2.53969C25.492 2.2584 25.6216 2.28003 26.2265 2.69116C26.637 2.95082 27.458 3.66488 28.0629 4.31402C28.6678 4.94153 29.3591 5.85033 29.5968 6.32637C29.8344 6.80241 30.1585 7.58138 30.3097 8.05742C30.4609 8.53346 30.6554 9.39898 30.7202 9.98321C30.8282 10.9569 30.9146 11.0651 31.4979 11.2382C31.8652 11.3248 32.2757 11.5844 32.4269 11.7792C32.5781 11.9956 32.6861 12.4067 32.6861 12.7096C32.7077 13.0126 32.4917 13.4453 32.2325 13.6833C31.8004 14.0945 31.4331 14.1161 21.1496 14.181C14.1283 14.2243 10.3476 14.1594 9.9371 14.0079C9.61304 13.8997 9.22417 13.5319 9.07294 13.2289C8.87851 12.8394 8.8785 12.5149 9.02973 12.1038C9.18096 11.7143 9.50502 11.433 10.0019 11.2815C10.6932 11.0435 10.7581 10.9569 10.8877 9.98321C10.9525 9.39898 11.1469 8.53346 11.2982 8.05742C11.4494 7.58138 11.7734 6.80241 12.0111 6.32637C12.2487 5.85033 12.9401 4.94153 13.545 4.31402C14.1499 3.66488 14.9708 2.95082 15.3813 2.69116C15.9862 2.28003 16.1159 2.2584 16.2671 2.53969C16.3751 2.7128 16.6127 3.83798 16.8072 5.02808C17.0016 6.21818 17.1961 7.25681 17.2609 7.365C17.3041 7.45155 17.5201 7.51647 17.7146 7.51647C17.9306 7.5381 18.233 7.40827 18.3627 7.25681C18.5787 7.04043 18.5355 6.39128 17.6713 1.19813Z" fill="#1B923C"/>
<path d="M11.363 18.5519C11.0821 17.4267 10.8661 16.2799 10.8877 15.9986C10.8877 15.5875 10.9957 15.5009 11.471 15.5659C11.9895 15.6308 12.0543 15.7606 12.2919 17.0373C12.4432 17.8162 12.724 18.9414 12.9185 19.5256C13.1129 20.1315 13.5882 21.1918 13.9771 21.9058C14.3443 22.5983 15.1221 23.7018 15.727 24.3077C16.3751 24.9784 17.3257 25.6709 18.1034 26.0387C19.0972 26.4931 19.7237 26.6446 20.8039 26.6446C21.9057 26.6662 22.489 26.5364 23.5044 26.0387C24.2822 25.6925 25.2544 24.9568 25.9241 24.2644C26.5938 23.5936 27.3932 22.4468 27.8252 21.538C28.2573 20.6725 28.7758 19.2227 29.0135 18.3355C29.2511 17.4484 29.4455 16.453 29.4455 16.1284C29.4455 15.6091 29.532 15.5226 30.0937 15.5226C30.6122 15.5226 30.7418 15.6091 30.7418 16.0203C30.7418 16.2799 30.5257 17.4267 30.2449 18.5519C29.9424 19.7204 29.3159 21.4082 28.7758 22.4468C28.1709 23.6369 27.3716 24.7404 26.529 25.606C25.7513 26.3849 24.7143 27.1639 23.9365 27.5534C22.8131 28.0943 22.4026 28.1809 20.8039 28.1809C19.2052 28.1809 18.7948 28.0943 17.6713 27.5534C16.8936 27.1639 15.8566 26.3849 15.0789 25.606C14.2363 24.7404 13.437 23.6369 12.832 22.4468C12.2919 21.4082 11.6654 19.7204 11.363 18.5519Z" fill="#1B923C"/>
<path d="M10.326 27.6183C9.61304 27.813 8.40322 28.3107 7.62547 28.7218C6.80452 29.1762 5.59469 30.1067 4.70893 30.9939C3.73675 31.9459 2.89419 33.0711 2.3973 34.0232C1.96522 34.8454 1.46832 36.1221 1.27389 36.8362C1.07945 37.5502 0.928223 39.0216 0.928223 40.0819C0.928223 41.1854 1.05785 42.5053 1.25228 43.1112C1.42512 43.7171 1.8788 44.5826 2.26767 45.037C2.65654 45.4914 3.41269 46.0973 3.95279 46.3569C4.49289 46.6166 5.46507 46.9844 6.11319 47.1359C7.06377 47.3739 10.0019 47.4388 20.8039 47.4388C31.6059 47.4388 34.5441 47.3739 35.4947 47.1359C36.1428 46.9844 37.115 46.6166 37.6551 46.3569C38.1952 46.0756 38.8865 45.578 39.2106 45.2318C39.5346 44.9072 40.0099 44.1498 40.2692 43.544C40.6796 42.6568 40.7661 42.0726 40.7661 40.2983C40.7661 38.8701 40.6364 37.7017 40.3772 36.8362C40.1611 36.1221 39.6426 34.8454 39.2106 34.0232C38.7137 33.0711 37.8711 31.9459 36.8989 30.9939C35.9484 30.0201 34.8249 29.1762 33.8744 28.6786C33.0318 28.2458 31.7788 27.7481 31.0658 27.5534C30.3529 27.3586 29.5752 27.2072 29.3375 27.2288C29.0351 27.2288 28.7758 27.5101 28.4734 28.1376C28.2357 28.6569 27.6308 29.3494 27.0691 29.7605C26.529 30.1716 25.4056 30.6909 24.5846 30.9506C23.4612 31.2968 22.5106 31.405 20.8039 31.405C19.0972 31.405 18.1466 31.2968 17.0232 30.9506C16.1807 30.6909 15.0789 30.1716 14.5388 29.7605C13.9771 29.3494 13.3721 28.6569 13.1345 28.1376C12.7888 27.4236 12.5944 27.2288 12.1623 27.2288C11.8599 27.2288 11.0389 27.4019 10.326 27.6183Z" fill="#2E2E2E"/>
</svg>
