<svg width="42" height="38" viewBox="0 0 42 38" fill="none" xmlns="http://www.w3.org/2000/svg">
<path d="M21.3598 0.00312727C9.76335 -0.194994 0.20125 9.04536 0.00312934 20.6418C-0.109403 27.217 2.8212 33.1266 7.48734 37.0565C7.79245 36.7902 8.11974 36.5461 8.48349 36.348L14.7497 32.93C15.5715 32.4815 16.0834 31.62 16.0834 30.6833V28.1157C16.0834 28.1157 14.2441 25.9157 13.5427 22.8591C12.961 22.4827 12.5711 21.8321 12.5711 21.0911V18.281C12.5711 17.6628 12.8461 17.1105 13.2733 16.7237V12.6615C13.2733 12.6615 12.4388 6.33982 21 6.33982C29.5612 6.33982 28.7267 12.6615 28.7267 12.6615V16.7237C29.1546 17.1105 29.4288 17.6628 29.4288 18.281V21.0911C29.4288 22.0357 28.7948 22.8306 27.9342 23.0961C27.4548 24.5868 26.7629 26.0077 25.8484 27.2994C25.6178 27.6251 25.4022 27.9009 25.2136 28.1157V30.7483C25.2136 31.7175 25.7612 32.6043 26.6282 33.037L33.3382 36.3916C33.7407 36.5929 34.1045 36.8473 34.4397 37.1302C38.9648 33.3564 41.8883 27.7139 41.9968 21.3598C42.1965 9.76335 32.957 0.201248 21.3598 0.00312727Z" fill="#556080"/>
</svg>
