<svg width="81" height="80" viewBox="0 0 81 80" fill="none" xmlns="http://www.w3.org/2000/svg">
<g clipPath="url(#clip0_113_797)">
<rect x="0.96875" width="79.6367" height="79.6367" fill="#01402D"/>
<path d="M40.9688 28.75C40.9688 34.9632 35.9319 40 29.7188 40H18.4688V28.75C18.4688 22.5368 23.5055 17.5 29.7188 17.5C35.9319 17.5 40.9688 22.5368 40.9688 28.75Z" fill="#17CF97"/>
<path d="M40.9688 51.25C40.9688 45.0368 46.0055 40 52.2188 40H63.4688V51.25C63.4688 57.4632 58.4319 62.5 52.2188 62.5C46.0055 62.5 40.9688 57.4632 40.9688 51.25Z" fill="#17CF97"/>
<path d="M18.4688 51.25C18.4688 57.4632 23.5055 62.5 29.7188 62.5H40.9688V51.25C40.9688 45.0368 35.9319 40 29.7188 40C23.5055 40 18.4688 45.0368 18.4688 51.25Z" fill="#17CF97"/>
<path d="M63.4688 28.75C63.4688 22.5368 58.4319 17.5 52.2188 17.5H40.9688V28.75C40.9688 34.9632 46.0055 40 52.2188 40C58.4319 40 63.4688 34.9632 63.4688 28.75Z" fill="#17CF97"/>
</g>
<defs>
<clipPath id="clip0_113_797">
<rect x="0.96875" width="80" height="80" rx="40" fill="white"/>
</clipPath>
</defs>
</svg>
