<svg width="81" height="80" viewBox="0 0 81 80" fill="none" xmlns="http://www.w3.org/2000/svg">
<g clipPath="url(#clip0_113_695)">
<rect x="0.3125" width="79.6367" height="79.6367" fill="#434040"/>
<g clipPath="url(#clip1_113_695)">
<path fillRule="evenodd" clipRule="evenodd" d="M30.3125 20C35.8353 20 40.3125 24.4771 40.3125 30V20H50.3125C55.8353 20 60.3125 24.4771 60.3125 30C60.3125 35.5228 55.8353 40 50.3125 40C55.8353 40 60.3125 44.4772 60.3125 50C60.3125 52.7423 59.2086 55.2268 57.421 57.0334L57.3836 57.0711L57.3504 57.1041C55.5434 58.8943 53.0571 60 50.3125 60C47.5866 60 45.1154 58.9093 43.3115 57.1405C43.2881 57.1175 43.2647 57.0943 43.2414 57.0711C43.2195 57.0492 43.1977 57.0272 43.176 57.0051C41.4049 55.2009 40.3125 52.728 40.3125 50C40.3125 55.5228 35.8353 60 30.3125 60C24.7896 60 20.3125 55.5228 20.3125 50V40H30.3125C24.7896 40 20.3125 35.5228 20.3125 30C20.3125 24.4771 24.7896 20 30.3125 20ZM38.3125 30C38.3125 34.4183 34.7308 38 30.3125 38V22C34.7308 22 38.3125 25.5817 38.3125 30ZM58.3125 50C58.3125 45.5817 54.7308 42 50.3125 42C45.8942 42 42.3125 45.5817 42.3125 50H58.3125ZM22.3125 42V50C22.3125 54.4183 25.8942 58 30.3125 58C34.7308 58 38.3125 54.4183 38.3125 50V42H22.3125ZM42.3125 38V22H50.3125C54.7308 22 58.3125 25.5817 58.3125 30C58.3125 34.4183 54.7308 38 50.3125 38H42.3125Z" fill="white"/>
</g>
</g>
<defs>
<clipPath id="clip0_113_695">
<rect x="0.3125" width="80" height="80" rx="40" fill="white"/>
</clipPath>
<clipPath id="clip1_113_695">
<rect width="40" height="40" fill="white" transform="translate(20.3125 20)"/>
</clipPath>
</defs>
</svg>
