<svg width="81" height="80" viewBox="0 0 81 80" fill="none" xmlns="http://www.w3.org/2000/svg">
<g clipPath="url(#clip0_113_725)">
<rect x="0.625" width="79.6367" height="79.6367" fill="#06284D"/>
<path d="M45.8027 34.8468C44.3933 33.4433 42.7201 32.33 40.8788 31.5704C39.0373 30.8109 37.0638 30.4199 35.0706 30.4199C33.0775 30.4199 31.1039 30.8109 29.2625 31.5704C27.4211 32.33 25.748 33.4433 24.3386 34.8468L35.0706 45.5342L45.8027 34.8468Z" fill="#FFD200"/>
<path d="M35.0841 45.5498C36.4935 46.9532 38.1666 48.0666 40.008 48.8261C41.8494 49.5857 43.823 49.9766 45.8161 49.9766C47.8092 49.9766 49.783 49.5857 51.6243 48.8261C53.4657 48.0666 55.139 46.9532 56.5482 45.5498L45.8161 34.8623L35.0841 45.5498Z" fill="#06E07F"/>
<path d="M35.0577 45.5478C33.6483 46.9513 31.9751 48.0646 30.1338 48.8242C28.2923 49.5837 26.3188 49.9747 24.3256 49.9747C22.3325 49.9747 20.3589 49.5837 18.5175 48.8242C16.6761 48.0646 15.003 46.9513 13.5936 45.5478L24.3256 34.8604L35.0577 45.5478Z" fill="#E3073C"/>
<path d="M45.8292 34.8497C47.2384 33.4462 48.9117 32.3329 50.7531 31.5733C52.5944 30.8138 54.5683 30.4229 56.5611 30.4229C58.5545 30.4229 60.5279 30.8138 62.3692 31.5733C64.2105 32.3329 65.8839 33.4462 67.2931 34.8497L56.5611 45.5372L45.8292 34.8497Z" fill="#1F84EF"/>
</g>
<defs>
<clipPath id="clip0_113_725">
<rect x="0.625" width="80" height="80" rx="40" fill="white"/>
</clipPath>
</defs>
</svg>
