<svg width="200" height="19" viewBox="0 0 200 19" fill="none" xmlns="http://www.w3.org/2000/svg">
<path d="M11.8148 12.2661C11.2697 13.1983 10.4274 14.6538 8.33398 14.6538C6.1714 14.6538 4.37424 12.9031 4.37424 9.37582C4.37424 6.68989 5.73992 4.27957 8.33398 4.27957C8.9936 4.27957 9.76676 4.46124 10.5399 5.07544C11.247 5.66795 11.5185 6.21402 11.7466 6.73531L14.9311 5.14253C14.477 4.34666 13.9536 3.45995 12.8388 2.57221C11.6331 1.61634 9.99386 0.980469 8.15128 0.980469C3.60109 0.980469 0.370117 4.73376 0.370117 9.48937C0.370117 14.9273 3.8065 18.02 8.06044 18.02C10.2901 18.02 11.8602 17.0868 12.5435 16.6099C13.8163 15.7252 14.3861 14.8148 14.9766 13.8796L11.8148 12.2661ZM31.8602 16.3157C33.6346 14.8809 34.9084 12.3797 34.9084 9.60189C34.9084 8.51079 34.5895 3.16473 29.6759 1.45737C28.6973 1.11569 27.6971 0.980469 26.7412 0.980469C21.5768 0.980469 18.8238 5.09711 18.8238 9.44292C18.8238 14.085 21.7131 17.9972 26.8104 17.9972C28.4692 17.9983 30.2891 17.6112 31.8602 16.3157ZM30.8806 9.87544C30.7691 13.2437 28.719 14.6094 26.8104 14.6094C24.9213 14.6094 22.7825 13.1983 22.7825 9.37582C22.7825 6.46279 24.3288 4.32395 26.765 4.32395C27.8571 4.32395 28.9028 4.77815 29.584 5.50692C30.4945 6.48653 30.9497 8.19182 30.8806 9.87544ZM39.7993 17.5441H43.8251V11.8099H46.3521L49.5366 17.5441H53.9732L50.2643 11.1286C51.3564 10.7188 53.5624 9.92189 53.5624 6.69092C53.5624 5.23647 53.039 3.95957 52.2906 3.12034C50.8114 1.52757 48.718 1.50383 47.0344 1.48318H39.7982L39.7993 17.5441ZM47.2388 4.48395C48.0801 4.50666 49.5603 4.57686 49.5603 6.62176C49.5603 8.7606 47.7177 8.80705 47.1479 8.82873H43.8251V4.48395H47.2388ZM58.8661 17.5441H62.893V12.2878H65.5541C67.7373 12.2434 70.6968 12.1743 72.0842 9.3077C72.4496 8.55518 72.6292 7.69221 72.6292 6.80344C72.6292 5.71131 72.335 4.41582 71.7188 3.50537C70.3087 1.48215 67.9644 1.48215 65.326 1.48215H58.8651L58.8661 17.5441ZM65.4406 4.43853C66.6019 4.43853 68.6261 4.43853 68.6261 6.78279C68.6261 9.26227 66.8052 9.30873 65.3043 9.30873H62.8919V4.43853H65.4406ZM87.0561 1.48215V11.4692C87.0344 12.7214 87.0344 14.5867 84.303 14.5867C83.3007 14.5867 82.2117 14.3369 81.709 13.4945C81.4364 12.9929 81.4137 12.3105 81.4137 11.492V1.48318H77.3642V10.4473C77.3415 12.6316 77.3415 15.4527 80.4352 17.0455C81.5283 17.6143 82.9601 17.9095 84.1657 17.9095C84.8491 17.9095 88.4207 17.7732 90.1487 14.9985C91.0364 13.5431 91.0602 11.9957 91.0829 10.4483V1.48421H87.0561V1.48215ZM95.4741 14.6538C96.4754 15.815 98.2726 17.9064 102.8 17.9064C105.052 17.9064 107.375 17.4274 108.83 15.7449C109.672 14.7673 110.103 13.4925 110.103 12.3322C110.103 10.5123 109.171 9.07957 107.329 8.39621C106.419 8.07724 104.121 7.64473 102.413 7.44137C101.731 7.3495 100.366 7.16782 100.366 5.93944C100.366 5.16524 101.162 4.25479 102.756 4.25479C103.779 4.25479 104.802 4.64189 105.372 4.95983C106.007 5.32524 106.465 5.75673 106.963 6.25841L109.922 4.14124C108.534 2.89118 106.532 1.09402 102.823 1.09402C100.047 1.09402 96.3598 2.32034 96.3598 6.46176C96.3598 9.92086 99.7043 10.6269 100.683 10.8303C101.548 11.013 102.436 11.1276 103.323 11.2391C104.506 11.3991 106.123 11.6045 106.123 12.8783C106.123 13.9952 104.757 14.7436 103.164 14.7436C102.232 14.7436 101.14 14.5402 100.07 13.9704C99.2739 13.5389 98.9311 13.1745 98.5224 12.7203L95.4741 14.6538ZM118.636 14.6538C119.636 15.815 121.434 17.9064 125.962 17.9064C128.214 17.9064 130.536 17.4274 131.991 15.7449C132.833 14.7673 133.265 13.4925 133.265 12.3322C133.265 10.5123 132.331 9.07957 130.489 8.39621C129.581 8.07724 127.284 7.64473 125.576 7.44137C124.892 7.3495 123.528 7.16782 123.528 5.93944C123.528 5.16524 124.325 4.25479 125.916 4.25479C126.94 4.25479 127.963 4.64189 128.534 4.95983C129.169 5.32524 129.625 5.75673 130.126 6.25841L133.082 4.14124C131.695 2.89118 129.693 1.09402 125.984 1.09402C123.208 1.09402 119.522 2.32034 119.522 6.46176C119.522 9.92086 122.866 10.6269 123.845 10.8303C124.71 11.013 125.595 11.1276 126.484 11.2391C127.667 11.3991 129.284 11.6045 129.284 12.8783C129.284 13.9952 127.918 14.7436 126.325 14.7436C125.395 14.7436 124.301 14.5402 123.23 13.9704C122.436 13.5389 122.094 13.1745 121.683 12.7203L118.636 14.6538ZM137.998 17.5441H142.004V1.48111H137.998V17.5441ZM147.734 17.5441H151.761V11.8099H154.286L157.47 17.5441H161.909L158.2 11.1286C159.291 10.7188 161.498 9.92189 161.498 6.69092C161.498 5.23647 160.975 3.95957 160.224 3.12034C158.744 1.52757 156.652 1.50383 154.967 1.48318H147.732L147.734 17.5441ZM155.175 4.48395C156.015 4.50666 157.495 4.57686 157.495 6.62176C157.495 8.7606 155.652 8.80705 155.084 8.82873H151.761V4.48395H155.175ZM166.71 17.5441H179.292V14.3812H170.714V10.5598H178.061V7.5095H170.714V4.5975H178.585V1.48215H166.71V17.5441ZM196.131 16.3157C197.905 14.8809 199.178 12.3797 199.178 9.60189C199.178 8.51079 198.86 3.16473 193.943 1.45737C192.969 1.11569 191.965 0.980469 191.009 0.980469C185.845 0.980469 183.092 5.09711 183.092 9.44292C183.092 14.085 185.98 17.9972 191.079 17.9972C192.739 17.9983 194.56 17.6112 196.131 16.3157ZM195.151 9.87544C195.037 13.2437 192.987 14.6094 191.08 14.6094C189.19 14.6094 187.051 13.1983 187.051 9.37582C187.051 6.46279 188.599 4.32395 191.033 4.32395C192.126 4.32395 193.172 4.77815 193.852 5.50692C194.764 6.48653 195.219 8.19182 195.151 9.87544Z" fill="#9BADAF"/>
</svg>
