<svg width="9" height="19" viewBox="0 0 9 19" fill="none" xmlns="http://www.w3.org/2000/svg">
<g clipPath="url(#clip0_7_120)">
<path d="M8.13643 7.55078H6.78036H6.29605V6.98626V5.23626V4.67175H6.78036H7.79741C8.06378 4.67175 8.28172 4.44594 8.28172 4.10723V1.1153C8.28172 0.804813 8.088 0.550781 7.79741 0.550781H6.02968C4.11665 0.550781 2.78479 2.13142 2.78479 4.47417V6.92981V7.49433H2.30048H0.65382C0.314802 7.49433 0 7.80481 0 8.25642V10.2887C0 10.6839 0.266371 11.0508 0.65382 11.0508H2.25205H2.73636V11.6153V17.2887C2.73636 17.6839 3.00273 18.0508 3.39018 18.0508H5.66644C5.81174 18.0508 5.93281 17.9661 6.02968 17.8532C6.12654 17.7403 6.19919 17.5427 6.19919 17.3734V11.6435V11.079H6.70771H7.79741C8.11222 11.079 8.35437 10.8532 8.4028 10.5145V10.4863V10.458L8.74182 8.51046C8.76604 8.31288 8.74182 8.08707 8.59653 7.86126C8.54809 7.72013 8.33016 7.57901 8.13643 7.55078Z" fill="#CED3F6"/>
</g>
<defs>
<clipPath id="clip0_7_120">
<rect width="9" height="18" fill="white" transform="translate(0 0.550781)"/>
</clipPath>
</defs>
</svg>
