<svg width="37" height="37" viewBox="0 0 37 37" fill="none" xmlns="http://www.w3.org/2000/svg">
<rect x="0.953125" y="0.46875" width="36" height="36" rx="6" fill="#4A6CF7" fill-opacity="0.1"/>
<g clipPath="url(#clip0_7_93)">
<path d="M22.5896 16.4688H21.2335H20.7492V15.9042V14.1542V13.5897H21.2335H22.2505C22.5169 13.5897 22.7348 13.3639 22.7348 13.0252V10.0333C22.7348 9.72278 22.5411 9.46875 22.2505 9.46875H20.4828C18.5698 9.46875 17.2379 11.0494 17.2379 13.3921V15.8478V16.4123H16.7536H15.1069C14.7679 16.4123 14.4531 16.7228 14.4531 17.1744V19.2066C14.4531 19.6018 14.7195 19.9688 15.1069 19.9688H16.7052H17.1895V20.5332V26.2066C17.1895 26.6019 17.4559 26.9688 17.8433 26.9688H20.1196C20.2649 26.9688 20.3859 26.8841 20.4828 26.7712C20.5797 26.6583 20.6523 26.4606 20.6523 26.2913V20.5615V19.997H21.1608H22.2505C22.5653 19.997 22.8075 19.7711 22.8559 19.4325V19.4042V19.376L23.1949 17.4284C23.2192 17.2309 23.1949 17.005 23.0497 16.7792C23.0012 16.6381 22.7833 16.497 22.5896 16.4688Z" fill="#F4F4F4"/>
</g>
<defs>
<clipPath id="clip0_7_93">
<rect width="9" height="18" fill="white" transform="translate(14.4531 9.46875)"/>
</clipPath>
</defs>
</svg>
