<svg width="58" height="52" viewBox="0 0 58 52" fill="none" xmlns="http://www.w3.org/2000/svg">
<path d="M19.2226 10.8779C20.0719 8.27379 21.302 6.05877 23.2061 4.19529C27.5064 -0.00607461 34.4253 -0.883207 40.0433 2.9086C43.4741 5.22601 45.2434 8.60485 45.7759 12.6424C45.9511 13.9666 46.4701 14.5502 47.6935 14.9769C52.9239 16.8062 56.075 22.8676 54.7303 28.5025C54.3832 28.3147 54.0462 28.1714 53.7496 27.97C46.0017 22.6629 35.2341 26.441 32.7436 35.4888C32.083 37.8847 32.0291 37.8642 29.5925 37.8642C22.8253 37.8574 16.058 37.755 9.29756 37.9018C6.29814 37.9666 2.28768 35.9427 0.713832 31.9427C-0.84317 27.9871 0.268975 24.1987 2.99541 21.5434C3.66944 20.8881 4.48164 20.3557 5.29047 19.8642C5.85666 19.5161 6.27792 19.1782 6.27118 18.441C6.20715 12.482 12.7621 8.11679 18.5519 10.738C18.6969 10.8028 18.8721 10.8062 19.2226 10.8779Z" fill="#093E46"/>
<path d="M45.947 51.4763C39.8842 51.9132 33.6629 46.4149 33.8112 39.1282C33.9494 32.333 39.473 27.2545 45.7684 27.2306C52.502 27.2033 57.8335 32.3739 57.9953 39.2101C58.157 46.1214 52.1986 51.8688 45.947 51.4763ZM44.9495 30.507C44.9495 32.1384 44.9495 33.647 44.9495 35.1589C44.9495 36.7391 44.9832 38.3227 44.9394 39.9029C44.8989 41.3637 45.1551 42.8586 44.7035 44.4729C43.4666 43.2954 42.3882 42.2681 41.1412 41.077C40.6593 41.5548 40.3155 41.8995 40.1942 42.019C42.2871 44.1453 44.1979 46.0838 45.9066 47.821C47.6456 46.077 49.5295 44.1862 51.5145 42.1964C51.3157 41.9883 50.9921 41.6401 50.5608 41.1828C49.3745 42.3091 48.2792 43.3466 47.1873 44.3808C47.0592 44.3159 46.9311 44.2511 46.8031 44.1862C46.8031 39.6401 46.8031 35.0941 46.8031 30.4183C46.1088 30.449 45.637 30.4729 44.9495 30.507Z" fill="#008CA2"/>
</svg>
