<svg width="60" height="60" viewBox="0 0 60 60" fill="none" xmlns="http://www.w3.org/2000/svg">
<mask id="path-1-outside-1_111_784" maskUnits="userSpaceOnUse" x="0.224609" y="0.195312" width="60" height="60" fill="black">
<rect fill="white" x="0.224609" y="0.195312" width="60" height="60"/>
<path d="M7.08257 36.1002C7.08257 37.768 7.08257 39.3615 7.08257 41.0361C7.96895 41.3271 8.52039 41.9225 8.44934 42.9915C8.38845 43.9151 7.6983 44.7135 6.7781 44.8319C6.08456 44.9199 5.26247 44.3279 4.98844 43.5497C4.6569 42.6059 4.99521 41.5334 5.89173 41.2053C6.39242 41.0226 6.36536 40.7587 6.36536 40.4001C6.36536 39.0198 6.38904 37.6429 6.35859 36.2626C6.34506 35.6367 6.57511 35.4168 7.20098 35.4337C8.59143 35.4675 9.98527 35.4439 11.325 35.4439C10.9562 33.7151 10.6145 32.1047 10.239 30.3455C9.34248 30.3455 8.31064 30.3185 7.28218 30.3692C7.08934 30.3794 6.85591 30.6805 6.7375 30.9004C6.20974 31.8815 4.89033 32.2536 3.90585 31.418C3.17172 30.7955 3.20217 30.0309 3.41192 29.3171C3.53033 28.9145 4.04456 28.4747 4.47083 28.3428C5.26247 28.0958 6.16914 28.1398 6.60894 28.9788C6.9574 29.6419 7.42088 29.6994 8.02984 29.6791C8.78427 29.6554 9.5387 29.6723 10.2864 29.6723C10.4285 27.8522 10.5604 26.1234 10.7025 24.3067C8.40536 24.3067 6.16237 24.3 3.91938 24.3101C2.41729 24.3169 2.68456 24.3135 2.67441 23.0245C2.66088 21.5326 2.67102 20.0406 2.67441 18.5487C2.67441 18.1766 2.64734 17.9364 2.19739 17.7368C1.36515 17.3714 1.05729 16.37 1.31102 15.4024C1.45311 14.8645 2.39699 14.1676 3.00933 14.1541C3.86864 14.1338 4.75839 14.9051 4.96814 15.849C5.10347 16.4681 4.43361 17.4966 3.66904 17.8382C3.57431 17.8788 3.47282 17.8991 3.34088 17.9364C3.34088 19.726 3.31719 21.4683 3.37132 23.2106C3.37809 23.4305 3.80774 23.8196 4.04794 23.8263C6.15561 23.8771 8.26666 23.85 10.3777 23.8602C11.1558 23.8635 11.2269 23.1599 11.3656 22.7234C12.4211 19.4148 14.2852 16.6474 16.836 14.3232C18.7373 12.5911 20.9093 11.3055 23.318 10.3954C23.5718 10.2973 23.8559 9.91167 23.8796 9.63425C23.9541 8.82569 23.9067 8.00699 23.9067 7.09355C23.6157 7.06649 23.3485 7.02251 23.0812 7.02251C22.0967 7.01574 21.1089 7.05972 20.1278 7.00559C19.4207 6.96499 18.9099 7.07664 18.5242 7.77355C18.169 8.41972 17.127 8.69714 16.3928 8.36221C15.7399 8.0645 15.1749 7.53674 15.1918 6.74509C15.2088 5.95345 15.5099 5.2836 16.3759 4.97912C17.3266 4.64419 18.4092 4.95206 18.7982 5.90609C18.9775 6.34589 19.1873 6.3628 19.529 6.3628C20.9093 6.3628 22.2862 6.37972 23.6665 6.35265C24.3228 6.33912 24.5732 6.60977 24.5562 7.25256C24.5326 8.16599 24.5495 9.08281 24.5495 9.85077C26.0448 9.685 27.4014 9.47863 28.7648 9.40082C29.455 9.36022 29.7053 9.15386 29.6816 8.45694C29.6546 7.64838 29.7391 6.94131 28.7445 6.50489C27.9799 6.16997 27.8987 5.05016 28.3352 4.17733C28.6667 3.50409 29.6376 3.13872 30.5545 3.33155C31.2548 3.48041 31.681 4.12658 31.7385 4.99265C31.7893 5.80459 31.4713 6.34927 30.7676 6.73156C30.3515 6.95823 30.0977 8.89674 30.453 9.2046C30.612 9.34331 30.9165 9.33654 31.16 9.36361C32.3475 9.50231 33.535 9.62072 34.7224 9.77296C34.922 9.80002 35.1081 9.93873 35.416 10.0774C35.5073 9.70868 35.6595 9.37376 35.6629 9.03883C35.6765 7.15445 35.6562 5.27007 35.6359 3.38568C35.6291 2.8816 35.7712 2.63464 36.3429 2.64479C38.0311 2.67523 39.7193 2.65155 41.4074 2.6617C41.8134 2.66509 42.0705 2.6414 42.2667 2.13732C42.5712 1.35583 43.8703 0.990455 44.7025 1.31185C45.2168 1.51145 45.9069 2.65155 45.8393 3.19285C45.7344 4.02509 44.8007 4.97912 43.9887 4.94867C43.2208 4.91822 42.5272 4.51225 42.2329 3.81534C42.0367 3.35524 41.8066 3.32141 41.4345 3.32141C39.9155 3.32479 38.3965 3.33832 36.8775 3.31464C36.326 3.30449 36.1264 3.51762 36.1298 4.05892C36.1467 5.88917 36.1366 7.71604 36.1366 9.54629C36.1366 10.0571 36.3801 10.2669 36.8741 10.4665C41.9318 12.5403 45.7818 15.9099 47.9537 21.0217C48.292 21.8168 48.5728 22.6389 48.928 23.4271C49.0194 23.6267 49.29 23.8635 49.4862 23.8737C50.6027 23.9177 51.7258 23.894 52.9133 23.894C52.9133 22.2295 52.9133 20.6394 52.9133 19.0189C51.6886 18.3153 51.2488 17.4458 51.6345 16.3463C51.8104 15.8388 52.7678 15.054 53.4648 15.1521C54.3038 15.2705 55.065 15.9775 55.2612 16.9383C55.3965 17.6048 54.6285 18.6096 53.6474 19.0054C53.6474 20.4771 53.6508 21.9656 53.6474 23.4576C53.6441 24.4691 53.5764 24.5368 52.5243 24.5402C51.462 24.5435 50.3997 24.5402 49.3137 24.5402C49.4524 26.252 49.581 27.8793 49.7231 29.652C50.6872 29.652 51.7157 29.6791 52.7408 29.6249C52.9268 29.6148 53.1434 29.2934 53.2685 29.0701C53.9858 27.8116 55.4033 27.7203 56.3573 28.8096C56.9155 29.449 56.814 30.924 55.9818 31.4552C55.1935 31.9593 53.7794 31.7766 53.3463 30.9545C53.0858 30.4572 52.7746 30.288 52.2435 30.3083C51.4045 30.3422 50.5621 30.3185 49.7264 30.3185C49.5674 31.1575 49.4355 31.9424 49.263 32.7171C49.104 33.4377 48.9517 34.1651 48.7047 34.8552C48.4984 35.4371 48.6608 35.6604 49.2291 35.6604C51.648 35.6604 54.0703 35.6841 56.4859 35.6333C57.1083 35.6198 57.3452 35.7551 57.3384 36.3844C57.3181 38.0455 57.3282 39.7032 57.3316 41.3643C57.3316 41.7432 57.291 42.0476 57.8256 42.2473C58.6206 42.5483 58.9589 43.6851 58.6916 44.5985C58.5292 45.1567 57.4061 45.8908 56.8106 45.8266C55.9784 45.7352 55.065 44.8624 55.0345 44.0403C55.0041 43.1945 55.4912 42.545 56.1949 42.2067C56.6449 41.9901 56.6685 41.7398 56.6685 41.3744C56.6685 39.9095 56.6449 38.448 56.6787 36.9832C56.6956 36.3235 56.4689 36.09 55.8025 36.0968C53.6068 36.1272 51.4112 36.1509 49.219 36.0833C48.4882 36.0596 48.1702 36.381 47.9199 36.9426C45.978 41.256 42.8994 44.4699 38.6468 46.5505C37.8247 46.9531 36.979 47.3117 36.123 47.7008C36.123 49.4025 36.123 51.111 36.123 52.948C37.7097 52.948 39.2727 52.9581 40.8357 52.9277C40.9575 52.9243 41.0928 52.6469 41.1875 52.4777C41.6172 51.6996 42.693 51.3106 43.6267 51.6083C44.1782 51.7808 44.8852 52.8566 44.8311 53.4419C44.7567 54.2606 43.938 55.0556 42.9907 55.2316C42.446 55.3331 41.4379 54.6463 41.1537 53.9798C41.1131 53.8851 41.0962 53.7768 41.0556 53.6314C39.5061 53.6314 37.9871 53.6009 36.4715 53.6449C35.7137 53.6652 35.4092 53.4047 35.4295 52.63C35.4667 51.0873 35.4396 49.5412 35.4396 47.9275C33.7549 48.1913 32.131 48.4451 30.3447 48.7259C30.3447 49.9675 30.3244 51.3309 30.3684 52.6942C30.3752 52.8905 30.6661 53.1611 30.8826 53.2491C32.087 53.7295 32.2426 55.6308 31.0755 56.3818C30.2601 56.9062 29.0727 56.7776 28.4299 55.9149C27.9529 55.2722 28.2506 53.7024 28.9712 53.3573C29.597 53.0562 29.7019 52.6469 29.685 52.0413C29.6512 50.9215 29.6749 49.7983 29.6749 48.709C28.7344 48.5601 27.8649 48.4146 26.9955 48.2827C26.1328 48.1507 25.2701 48.0357 24.3127 47.897C24.3127 49.5209 24.3127 51.0331 24.3127 52.5454C24.3127 53.8952 24.3025 55.2485 24.316 56.5983C24.3228 57.1193 24.1537 57.3392 23.5819 57.3257C21.9242 57.2885 20.2631 57.3223 18.602 57.3122C18.1926 57.3088 17.9321 57.346 17.719 57.8196C17.357 58.618 16.3556 58.98 15.4388 58.6688C14.7419 58.432 14.275 57.8602 14.1634 57.1126C14.0348 56.2702 14.7419 55.3534 15.6858 55.0387C16.2812 54.8391 17.4991 55.4041 17.7765 56.1653C17.9524 56.6457 18.2028 56.6592 18.5716 56.6558C20.0635 56.6525 21.5554 56.6322 23.044 56.6626C23.6462 56.6761 23.8526 56.3818 23.8559 55.8574C23.8627 53.2964 23.8898 50.7354 23.8255 48.1744C23.8187 47.8632 23.3722 47.4099 23.0339 47.2881C19.3226 45.9382 16.3421 43.6377 14.0822 40.4305C13.2026 39.1856 12.5429 37.785 11.7648 36.4655C11.67 36.3065 11.4772 36.1036 11.325 36.1002C9.94129 36.09 8.54069 36.1002 7.08257 36.1002ZM11.0273 29.3103C10.7126 39.331 19.7827 47.9545 29.9354 47.9681C40.3316 47.9816 49.0025 39.2634 49.0058 29.0735C49.0092 17.9668 40.0339 9.85415 29.9387 9.85077C24.6713 9.84739 20.033 11.8299 16.3184 15.7374C12.7966 19.4385 10.9833 23.7891 11.0273 29.3103Z"/>
</mask>
<path d="M7.08257 36.1002C7.08257 37.768 7.08257 39.3615 7.08257 41.0361C7.96895 41.3271 8.52039 41.9225 8.44934 42.9915C8.38845 43.9151 7.6983 44.7135 6.7781 44.8319C6.08456 44.9199 5.26247 44.3279 4.98844 43.5497C4.6569 42.6059 4.99521 41.5334 5.89173 41.2053C6.39242 41.0226 6.36536 40.7587 6.36536 40.4001C6.36536 39.0198 6.38904 37.6429 6.35859 36.2626C6.34506 35.6367 6.57511 35.4168 7.20098 35.4337C8.59143 35.4675 9.98527 35.4439 11.325 35.4439C10.9562 33.7151 10.6145 32.1047 10.239 30.3455C9.34248 30.3455 8.31064 30.3185 7.28218 30.3692C7.08934 30.3794 6.85591 30.6805 6.7375 30.9004C6.20974 31.8815 4.89033 32.2536 3.90585 31.418C3.17172 30.7955 3.20217 30.0309 3.41192 29.3171C3.53033 28.9145 4.04456 28.4747 4.47083 28.3428C5.26247 28.0958 6.16914 28.1398 6.60894 28.9788C6.9574 29.6419 7.42088 29.6994 8.02984 29.6791C8.78427 29.6554 9.5387 29.6723 10.2864 29.6723C10.4285 27.8522 10.5604 26.1234 10.7025 24.3067C8.40536 24.3067 6.16237 24.3 3.91938 24.3101C2.41729 24.3169 2.68456 24.3135 2.67441 23.0245C2.66088 21.5326 2.67102 20.0406 2.67441 18.5487C2.67441 18.1766 2.64734 17.9364 2.19739 17.7368C1.36515 17.3714 1.05729 16.37 1.31102 15.4024C1.45311 14.8645 2.39699 14.1676 3.00933 14.1541C3.86864 14.1338 4.75839 14.9051 4.96814 15.849C5.10347 16.4681 4.43361 17.4966 3.66904 17.8382C3.57431 17.8788 3.47282 17.8991 3.34088 17.9364C3.34088 19.726 3.31719 21.4683 3.37132 23.2106C3.37809 23.4305 3.80774 23.8196 4.04794 23.8263C6.15561 23.8771 8.26666 23.85 10.3777 23.8602C11.1558 23.8635 11.2269 23.1599 11.3656 22.7234C12.4211 19.4148 14.2852 16.6474 16.836 14.3232C18.7373 12.5911 20.9093 11.3055 23.318 10.3954C23.5718 10.2973 23.8559 9.91167 23.8796 9.63425C23.9541 8.82569 23.9067 8.00699 23.9067 7.09355C23.6157 7.06649 23.3485 7.02251 23.0812 7.02251C22.0967 7.01574 21.1089 7.05972 20.1278 7.00559C19.4207 6.96499 18.9099 7.07664 18.5242 7.77355C18.169 8.41972 17.127 8.69714 16.3928 8.36221C15.7399 8.0645 15.1749 7.53674 15.1918 6.74509C15.2088 5.95345 15.5099 5.2836 16.3759 4.97912C17.3266 4.64419 18.4092 4.95206 18.7982 5.90609C18.9775 6.34589 19.1873 6.3628 19.529 6.3628C20.9093 6.3628 22.2862 6.37972 23.6665 6.35265C24.3228 6.33912 24.5732 6.60977 24.5562 7.25256C24.5326 8.16599 24.5495 9.08281 24.5495 9.85077C26.0448 9.685 27.4014 9.47863 28.7648 9.40082C29.455 9.36022 29.7053 9.15386 29.6816 8.45694C29.6546 7.64838 29.7391 6.94131 28.7445 6.50489C27.9799 6.16997 27.8987 5.05016 28.3352 4.17733C28.6667 3.50409 29.6376 3.13872 30.5545 3.33155C31.2548 3.48041 31.681 4.12658 31.7385 4.99265C31.7893 5.80459 31.4713 6.34927 30.7676 6.73156C30.3515 6.95823 30.0977 8.89674 30.453 9.2046C30.612 9.34331 30.9165 9.33654 31.16 9.36361C32.3475 9.50231 33.535 9.62072 34.7224 9.77296C34.922 9.80002 35.1081 9.93873 35.416 10.0774C35.5073 9.70868 35.6595 9.37376 35.6629 9.03883C35.6765 7.15445 35.6562 5.27007 35.6359 3.38568C35.6291 2.8816 35.7712 2.63464 36.3429 2.64479C38.0311 2.67523 39.7193 2.65155 41.4074 2.6617C41.8134 2.66509 42.0705 2.6414 42.2667 2.13732C42.5712 1.35583 43.8703 0.990455 44.7025 1.31185C45.2168 1.51145 45.9069 2.65155 45.8393 3.19285C45.7344 4.02509 44.8007 4.97912 43.9887 4.94867C43.2208 4.91822 42.5272 4.51225 42.2329 3.81534C42.0367 3.35524 41.8066 3.32141 41.4345 3.32141C39.9155 3.32479 38.3965 3.33832 36.8775 3.31464C36.326 3.30449 36.1264 3.51762 36.1298 4.05892C36.1467 5.88917 36.1366 7.71604 36.1366 9.54629C36.1366 10.0571 36.3801 10.2669 36.8741 10.4665C41.9318 12.5403 45.7818 15.9099 47.9537 21.0217C48.292 21.8168 48.5728 22.6389 48.928 23.4271C49.0194 23.6267 49.29 23.8635 49.4862 23.8737C50.6027 23.9177 51.7258 23.894 52.9133 23.894C52.9133 22.2295 52.9133 20.6394 52.9133 19.0189C51.6886 18.3153 51.2488 17.4458 51.6345 16.3463C51.8104 15.8388 52.7678 15.054 53.4648 15.1521C54.3038 15.2705 55.065 15.9775 55.2612 16.9383C55.3965 17.6048 54.6285 18.6096 53.6474 19.0054C53.6474 20.4771 53.6508 21.9656 53.6474 23.4576C53.6441 24.4691 53.5764 24.5368 52.5243 24.5402C51.462 24.5435 50.3997 24.5402 49.3137 24.5402C49.4524 26.252 49.581 27.8793 49.7231 29.652C50.6872 29.652 51.7157 29.6791 52.7408 29.6249C52.9268 29.6148 53.1434 29.2934 53.2685 29.0701C53.9858 27.8116 55.4033 27.7203 56.3573 28.8096C56.9155 29.449 56.814 30.924 55.9818 31.4552C55.1935 31.9593 53.7794 31.7766 53.3463 30.9545C53.0858 30.4572 52.7746 30.288 52.2435 30.3083C51.4045 30.3422 50.5621 30.3185 49.7264 30.3185C49.5674 31.1575 49.4355 31.9424 49.263 32.7171C49.104 33.4377 48.9517 34.1651 48.7047 34.8552C48.4984 35.4371 48.6608 35.6604 49.2291 35.6604C51.648 35.6604 54.0703 35.6841 56.4859 35.6333C57.1083 35.6198 57.3452 35.7551 57.3384 36.3844C57.3181 38.0455 57.3282 39.7032 57.3316 41.3643C57.3316 41.7432 57.291 42.0476 57.8256 42.2473C58.6206 42.5483 58.9589 43.6851 58.6916 44.5985C58.5292 45.1567 57.4061 45.8908 56.8106 45.8266C55.9784 45.7352 55.065 44.8624 55.0345 44.0403C55.0041 43.1945 55.4912 42.545 56.1949 42.2067C56.6449 41.9901 56.6685 41.7398 56.6685 41.3744C56.6685 39.9095 56.6449 38.448 56.6787 36.9832C56.6956 36.3235 56.4689 36.09 55.8025 36.0968C53.6068 36.1272 51.4112 36.1509 49.219 36.0833C48.4882 36.0596 48.1702 36.381 47.9199 36.9426C45.978 41.256 42.8994 44.4699 38.6468 46.5505C37.8247 46.9531 36.979 47.3117 36.123 47.7008C36.123 49.4025 36.123 51.111 36.123 52.948C37.7097 52.948 39.2727 52.9581 40.8357 52.9277C40.9575 52.9243 41.0928 52.6469 41.1875 52.4777C41.6172 51.6996 42.693 51.3106 43.6267 51.6083C44.1782 51.7808 44.8852 52.8566 44.8311 53.4419C44.7567 54.2606 43.938 55.0556 42.9907 55.2316C42.446 55.3331 41.4379 54.6463 41.1537 53.9798C41.1131 53.8851 41.0962 53.7768 41.0556 53.6314C39.5061 53.6314 37.9871 53.6009 36.4715 53.6449C35.7137 53.6652 35.4092 53.4047 35.4295 52.63C35.4667 51.0873 35.4396 49.5412 35.4396 47.9275C33.7549 48.1913 32.131 48.4451 30.3447 48.7259C30.3447 49.9675 30.3244 51.3309 30.3684 52.6942C30.3752 52.8905 30.6661 53.1611 30.8826 53.2491C32.087 53.7295 32.2426 55.6308 31.0755 56.3818C30.2601 56.9062 29.0727 56.7776 28.4299 55.9149C27.9529 55.2722 28.2506 53.7024 28.9712 53.3573C29.597 53.0562 29.7019 52.6469 29.685 52.0413C29.6512 50.9215 29.6749 49.7983 29.6749 48.709C28.7344 48.5601 27.8649 48.4146 26.9955 48.2827C26.1328 48.1507 25.2701 48.0357 24.3127 47.897C24.3127 49.5209 24.3127 51.0331 24.3127 52.5454C24.3127 53.8952 24.3025 55.2485 24.316 56.5983C24.3228 57.1193 24.1537 57.3392 23.5819 57.3257C21.9242 57.2885 20.2631 57.3223 18.602 57.3122C18.1926 57.3088 17.9321 57.346 17.719 57.8196C17.357 58.618 16.3556 58.98 15.4388 58.6688C14.7419 58.432 14.275 57.8602 14.1634 57.1126C14.0348 56.2702 14.7419 55.3534 15.6858 55.0387C16.2812 54.8391 17.4991 55.4041 17.7765 56.1653C17.9524 56.6457 18.2028 56.6592 18.5716 56.6558C20.0635 56.6525 21.5554 56.6322 23.044 56.6626C23.6462 56.6761 23.8526 56.3818 23.8559 55.8574C23.8627 53.2964 23.8898 50.7354 23.8255 48.1744C23.8187 47.8632 23.3722 47.4099 23.0339 47.2881C19.3226 45.9382 16.3421 43.6377 14.0822 40.4305C13.2026 39.1856 12.5429 37.785 11.7648 36.4655C11.67 36.3065 11.4772 36.1036 11.325 36.1002C9.94129 36.09 8.54069 36.1002 7.08257 36.1002ZM11.0273 29.3103C10.7126 39.331 19.7827 47.9545 29.9354 47.9681C40.3316 47.9816 49.0025 39.2634 49.0058 29.0735C49.0092 17.9668 40.0339 9.85415 29.9387 9.85077C24.6713 9.84739 20.033 11.8299 16.3184 15.7374C12.7966 19.4385 10.9833 23.7891 11.0273 29.3103Z" fill="#093E46"/>
<path d="M7.08257 36.1002C7.08257 37.768 7.08257 39.3615 7.08257 41.0361C7.96895 41.3271 8.52039 41.9225 8.44934 42.9915C8.38845 43.9151 7.6983 44.7135 6.7781 44.8319C6.08456 44.9199 5.26247 44.3279 4.98844 43.5497C4.6569 42.6059 4.99521 41.5334 5.89173 41.2053C6.39242 41.0226 6.36536 40.7587 6.36536 40.4001C6.36536 39.0198 6.38904 37.6429 6.35859 36.2626C6.34506 35.6367 6.57511 35.4168 7.20098 35.4337C8.59143 35.4675 9.98527 35.4439 11.325 35.4439C10.9562 33.7151 10.6145 32.1047 10.239 30.3455C9.34248 30.3455 8.31064 30.3185 7.28218 30.3692C7.08934 30.3794 6.85591 30.6805 6.7375 30.9004C6.20974 31.8815 4.89033 32.2536 3.90585 31.418C3.17172 30.7955 3.20217 30.0309 3.41192 29.3171C3.53033 28.9145 4.04456 28.4747 4.47083 28.3428C5.26247 28.0958 6.16914 28.1398 6.60894 28.9788C6.9574 29.6419 7.42088 29.6994 8.02984 29.6791C8.78427 29.6554 9.5387 29.6723 10.2864 29.6723C10.4285 27.8522 10.5604 26.1234 10.7025 24.3067C8.40536 24.3067 6.16237 24.3 3.91938 24.3101C2.41729 24.3169 2.68456 24.3135 2.67441 23.0245C2.66088 21.5326 2.67102 20.0406 2.67441 18.5487C2.67441 18.1766 2.64734 17.9364 2.19739 17.7368C1.36515 17.3714 1.05729 16.37 1.31102 15.4024C1.45311 14.8645 2.39699 14.1676 3.00933 14.1541C3.86864 14.1338 4.75839 14.9051 4.96814 15.849C5.10347 16.4681 4.43361 17.4966 3.66904 17.8382C3.57431 17.8788 3.47282 17.8991 3.34088 17.9364C3.34088 19.726 3.31719 21.4683 3.37132 23.2106C3.37809 23.4305 3.80774 23.8196 4.04794 23.8263C6.15561 23.8771 8.26666 23.85 10.3777 23.8602C11.1558 23.8635 11.2269 23.1599 11.3656 22.7234C12.4211 19.4148 14.2852 16.6474 16.836 14.3232C18.7373 12.5911 20.9093 11.3055 23.318 10.3954C23.5718 10.2973 23.8559 9.91167 23.8796 9.63425C23.9541 8.82569 23.9067 8.00699 23.9067 7.09355C23.6157 7.06649 23.3485 7.02251 23.0812 7.02251C22.0967 7.01574 21.1089 7.05972 20.1278 7.00559C19.4207 6.96499 18.9099 7.07664 18.5242 7.77355C18.169 8.41972 17.127 8.69714 16.3928 8.36221C15.7399 8.0645 15.1749 7.53674 15.1918 6.74509C15.2088 5.95345 15.5099 5.2836 16.3759 4.97912C17.3266 4.64419 18.4092 4.95206 18.7982 5.90609C18.9775 6.34589 19.1873 6.3628 19.529 6.3628C20.9093 6.3628 22.2862 6.37972 23.6665 6.35265C24.3228 6.33912 24.5732 6.60977 24.5562 7.25256C24.5326 8.16599 24.5495 9.08281 24.5495 9.85077C26.0448 9.685 27.4014 9.47863 28.7648 9.40082C29.455 9.36022 29.7053 9.15386 29.6816 8.45694C29.6546 7.64838 29.7391 6.94131 28.7445 6.50489C27.9799 6.16997 27.8987 5.05016 28.3352 4.17733C28.6667 3.50409 29.6376 3.13872 30.5545 3.33155C31.2548 3.48041 31.681 4.12658 31.7385 4.99265C31.7893 5.80459 31.4713 6.34927 30.7676 6.73156C30.3515 6.95823 30.0977 8.89674 30.453 9.2046C30.612 9.34331 30.9165 9.33654 31.16 9.36361C32.3475 9.50231 33.535 9.62072 34.7224 9.77296C34.922 9.80002 35.1081 9.93873 35.416 10.0774C35.5073 9.70868 35.6595 9.37376 35.6629 9.03883C35.6765 7.15445 35.6562 5.27007 35.6359 3.38568C35.6291 2.8816 35.7712 2.63464 36.3429 2.64479C38.0311 2.67523 39.7193 2.65155 41.4074 2.6617C41.8134 2.66509 42.0705 2.6414 42.2667 2.13732C42.5712 1.35583 43.8703 0.990455 44.7025 1.31185C45.2168 1.51145 45.9069 2.65155 45.8393 3.19285C45.7344 4.02509 44.8007 4.97912 43.9887 4.94867C43.2208 4.91822 42.5272 4.51225 42.2329 3.81534C42.0367 3.35524 41.8066 3.32141 41.4345 3.32141C39.9155 3.32479 38.3965 3.33832 36.8775 3.31464C36.326 3.30449 36.1264 3.51762 36.1298 4.05892C36.1467 5.88917 36.1366 7.71604 36.1366 9.54629C36.1366 10.0571 36.3801 10.2669 36.8741 10.4665C41.9318 12.5403 45.7818 15.9099 47.9537 21.0217C48.292 21.8168 48.5728 22.6389 48.928 23.4271C49.0194 23.6267 49.29 23.8635 49.4862 23.8737C50.6027 23.9177 51.7258 23.894 52.9133 23.894C52.9133 22.2295 52.9133 20.6394 52.9133 19.0189C51.6886 18.3153 51.2488 17.4458 51.6345 16.3463C51.8104 15.8388 52.7678 15.054 53.4648 15.1521C54.3038 15.2705 55.065 15.9775 55.2612 16.9383C55.3965 17.6048 54.6285 18.6096 53.6474 19.0054C53.6474 20.4771 53.6508 21.9656 53.6474 23.4576C53.6441 24.4691 53.5764 24.5368 52.5243 24.5402C51.462 24.5435 50.3997 24.5402 49.3137 24.5402C49.4524 26.252 49.581 27.8793 49.7231 29.652C50.6872 29.652 51.7157 29.6791 52.7408 29.6249C52.9268 29.6148 53.1434 29.2934 53.2685 29.0701C53.9858 27.8116 55.4033 27.7203 56.3573 28.8096C56.9155 29.449 56.814 30.924 55.9818 31.4552C55.1935 31.9593 53.7794 31.7766 53.3463 30.9545C53.0858 30.4572 52.7746 30.288 52.2435 30.3083C51.4045 30.3422 50.5621 30.3185 49.7264 30.3185C49.5674 31.1575 49.4355 31.9424 49.263 32.7171C49.104 33.4377 48.9517 34.1651 48.7047 34.8552C48.4984 35.4371 48.6608 35.6604 49.2291 35.6604C51.648 35.6604 54.0703 35.6841 56.4859 35.6333C57.1083 35.6198 57.3452 35.7551 57.3384 36.3844C57.3181 38.0455 57.3282 39.7032 57.3316 41.3643C57.3316 41.7432 57.291 42.0476 57.8256 42.2473C58.6206 42.5483 58.9589 43.6851 58.6916 44.5985C58.5292 45.1567 57.4061 45.8908 56.8106 45.8266C55.9784 45.7352 55.065 44.8624 55.0345 44.0403C55.0041 43.1945 55.4912 42.545 56.1949 42.2067C56.6449 41.9901 56.6685 41.7398 56.6685 41.3744C56.6685 39.9095 56.6449 38.448 56.6787 36.9832C56.6956 36.3235 56.4689 36.09 55.8025 36.0968C53.6068 36.1272 51.4112 36.1509 49.219 36.0833C48.4882 36.0596 48.1702 36.381 47.9199 36.9426C45.978 41.256 42.8994 44.4699 38.6468 46.5505C37.8247 46.9531 36.979 47.3117 36.123 47.7008C36.123 49.4025 36.123 51.111 36.123 52.948C37.7097 52.948 39.2727 52.9581 40.8357 52.9277C40.9575 52.9243 41.0928 52.6469 41.1875 52.4777C41.6172 51.6996 42.693 51.3106 43.6267 51.6083C44.1782 51.7808 44.8852 52.8566 44.8311 53.4419C44.7567 54.2606 43.938 55.0556 42.9907 55.2316C42.446 55.3331 41.4379 54.6463 41.1537 53.9798C41.1131 53.8851 41.0962 53.7768 41.0556 53.6314C39.5061 53.6314 37.9871 53.6009 36.4715 53.6449C35.7137 53.6652 35.4092 53.4047 35.4295 52.63C35.4667 51.0873 35.4396 49.5412 35.4396 47.9275C33.7549 48.1913 32.131 48.4451 30.3447 48.7259C30.3447 49.9675 30.3244 51.3309 30.3684 52.6942C30.3752 52.8905 30.6661 53.1611 30.8826 53.2491C32.087 53.7295 32.2426 55.6308 31.0755 56.3818C30.2601 56.9062 29.0727 56.7776 28.4299 55.9149C27.9529 55.2722 28.2506 53.7024 28.9712 53.3573C29.597 53.0562 29.7019 52.6469 29.685 52.0413C29.6512 50.9215 29.6749 49.7983 29.6749 48.709C28.7344 48.5601 27.8649 48.4146 26.9955 48.2827C26.1328 48.1507 25.2701 48.0357 24.3127 47.897C24.3127 49.5209 24.3127 51.0331 24.3127 52.5454C24.3127 53.8952 24.3025 55.2485 24.316 56.5983C24.3228 57.1193 24.1537 57.3392 23.5819 57.3257C21.9242 57.2885 20.2631 57.3223 18.602 57.3122C18.1926 57.3088 17.9321 57.346 17.719 57.8196C17.357 58.618 16.3556 58.98 15.4388 58.6688C14.7419 58.432 14.275 57.8602 14.1634 57.1126C14.0348 56.2702 14.7419 55.3534 15.6858 55.0387C16.2812 54.8391 17.4991 55.4041 17.7765 56.1653C17.9524 56.6457 18.2028 56.6592 18.5716 56.6558C20.0635 56.6525 21.5554 56.6322 23.044 56.6626C23.6462 56.6761 23.8526 56.3818 23.8559 55.8574C23.8627 53.2964 23.8898 50.7354 23.8255 48.1744C23.8187 47.8632 23.3722 47.4099 23.0339 47.2881C19.3226 45.9382 16.3421 43.6377 14.0822 40.4305C13.2026 39.1856 12.5429 37.785 11.7648 36.4655C11.67 36.3065 11.4772 36.1036 11.325 36.1002C9.94129 36.09 8.54069 36.1002 7.08257 36.1002ZM11.0273 29.3103C10.7126 39.331 19.7827 47.9545 29.9354 47.9681C40.3316 47.9816 49.0025 39.2634 49.0058 29.0735C49.0092 17.9668 40.0339 9.85415 29.9387 9.85077C24.6713 9.84739 20.033 11.8299 16.3184 15.7374C12.7966 19.4385 10.9833 23.7891 11.0273 29.3103Z" stroke="#093E46" mask="url(#path-1-outside-1_111_784)"/>
<path d="M19.5596 30.1309C19.5596 28.8521 19.5562 27.9793 19.5596 27.1064C19.5663 25.7634 20.1854 25.0597 21.5319 24.9108C22.1443 24.8432 22.2491 24.4676 22.2051 23.9771C22.0563 22.2382 22.4318 20.6312 23.4129 19.1799C24.7492 17.2075 26.5524 16.064 28.9679 15.7426C31.7421 15.3705 33.9952 16.267 35.8289 18.2394C37.2396 19.755 37.9602 21.6055 37.7775 23.7234C37.7065 24.5691 37.9602 24.965 38.8804 24.948C39.6382 24.9345 40.4163 25.9325 40.4265 26.8561C40.4502 28.7134 40.5686 30.5809 40.396 32.4213C40.007 36.5487 37.9128 39.6374 34.1373 41.3696C32.0432 42.3304 29.7867 42.4522 27.4726 41.8804C23.9779 41.0143 21.6909 38.7883 20.3039 35.6318C19.5021 33.7881 19.3938 31.7447 19.5596 30.1309ZM29.9186 24.8973C31.0688 24.8973 32.2225 24.8601 33.3727 24.9108C34.1644 24.9447 34.4553 24.5962 34.3572 23.8654C34.2895 23.3478 34.1914 22.8302 34.073 22.3228C33.5284 20.002 31.0452 18.7198 28.9747 19.2881C26.8062 19.8835 25.6255 21.636 25.6288 23.9602C25.6288 24.6368 25.8521 24.9311 26.5524 24.9108C27.6722 24.877 28.7954 24.9007 29.9186 24.8973ZM31.4714 36.4945C31.3564 35.8213 31.2921 35.3037 31.1771 34.803C31.0181 34.1061 30.7542 33.5208 31.5526 32.8915C32.1007 32.4585 32.4999 31.677 32.1075 30.75C31.7015 29.7892 30.9978 29.0686 30.0742 29.0247C29.1506 28.9807 28.2778 29.6641 27.8042 30.8008C27.5369 31.447 27.8109 32.4822 28.5281 32.9998C29.2284 33.5073 29.0052 34.0925 28.8698 34.715C28.7514 35.2631 28.6533 35.8111 28.5214 36.4979C29.5837 36.4945 30.4497 36.4945 31.4714 36.4945Z" fill="#008CA2"/>
</svg>
