<svg width="46" height="52" viewBox="0 0 46 52" fill="none" xmlns="http://www.w3.org/2000/svg">
<path d="M4.54276 19.9908C4.54276 15.8333 4.54276 11.6678 4.54276 7.51035C4.54276 6.23603 4.54276 6.23603 3.31306 6.22806C2.99572 6.22806 2.67837 6.24399 2.36103 6.21213C1.60734 6.14045 1.05199 5.5909 0.996453 4.86613C0.940918 4.17321 1.4328 3.50419 2.17062 3.3449C2.53557 3.26526 2.92431 3.28119 3.30513 3.28119C8.93797 3.28119 14.5708 3.28119 20.1957 3.28119C21.4175 3.28119 21.4175 3.27322 21.4968 2.03872C21.5603 0.852006 22.0918 0.214844 23.0042 0.214844C23.8848 0.214844 24.4243 0.836077 24.5116 1.94315C24.6147 3.27322 24.6147 3.28119 25.9158 3.28119C31.5487 3.28119 37.1815 3.28119 42.8064 3.28915C43.211 3.28915 43.6394 3.29712 44.0203 3.41658C44.6946 3.63163 45.0675 4.16525 44.9961 4.87409C44.9247 5.60683 44.4963 6.10063 43.7267 6.20417C43.5125 6.23603 43.2824 6.22806 43.0603 6.22806C41.299 6.23603 41.4577 6.06081 41.4577 7.89265C41.4577 16.0881 41.4577 24.2836 41.4577 32.4712C41.4577 34.2234 41.2514 34.4305 39.4823 34.4305C38.3716 34.4305 37.2688 34.4225 36.1581 34.4305C35.3727 34.4384 34.849 34.08 34.8014 33.2915C34.7459 32.4473 34.2223 32.4552 33.6193 32.4552C29.7001 32.4632 25.773 32.4552 21.8538 32.4552C18.6883 32.4552 15.5308 32.4632 12.3653 32.4473C11.6751 32.4393 11.2149 32.5429 11.1673 33.3871C11.1276 34.08 10.6278 34.4305 9.92173 34.4305C8.59682 34.4305 7.26398 34.4464 5.93907 34.4305C4.89184 34.4145 4.5507 34.0482 4.54276 32.949C4.5269 30.1535 4.53483 27.358 4.53483 24.5624C4.54276 23.0412 4.54276 21.512 4.54276 19.9908ZM23.0042 6.22806C18.1965 6.22806 13.3887 6.22806 8.58096 6.22806C7.49406 6.22806 7.48612 6.23603 7.48612 7.35902C7.48612 14.3439 7.49406 21.3288 7.47025 28.3217C7.47025 29.142 7.70033 29.4287 8.54129 29.4287C18.1885 29.4048 27.8358 29.4048 37.483 29.4287C38.3398 29.4287 38.554 29.1261 38.5461 28.3137C38.5223 21.3288 38.5302 14.3439 38.5302 7.35106C38.5302 6.23603 38.5223 6.22806 37.4275 6.22806C32.6197 6.22806 27.812 6.22806 23.0042 6.22806Z" fill="#093E46"/>
<path d="M15.6654 37.0913C15.0069 37.0913 14.5071 37.0993 14.0073 37.0913C12.9442 37.0674 12.2936 36.502 12.2778 35.602C12.254 34.7099 12.8966 34.1365 13.9994 34.1365C17.9503 34.1206 21.9091 34.1285 25.8601 34.1285C27.8831 34.1285 29.9062 34.1206 31.9293 34.1285C33.1193 34.1365 33.7698 34.6701 33.754 35.586C33.7381 36.5099 33.0717 37.0674 31.9372 37.0834C31.4691 37.0913 31.001 37.0834 30.3505 37.0834C30.525 37.5135 30.6361 37.8241 30.771 38.1188C32.5005 41.7586 34.2379 45.3904 35.9754 49.0302C36.0706 49.2293 36.1658 49.4284 36.2451 49.6434C36.5545 50.4956 36.3086 51.2523 35.6104 51.6107C34.8567 51.993 34.0396 51.754 33.6032 50.9257C32.9289 49.6355 32.3021 48.3134 31.6754 46.9992C30.2315 43.9966 28.7796 41.0019 27.3754 37.9834C27.058 37.2984 26.6455 37.0674 25.9156 37.0834C23.9877 37.1312 22.0599 37.1391 20.132 37.0834C19.3307 37.0595 18.9499 37.3701 18.6246 38.063C16.7602 42.0214 14.8483 45.9638 12.9521 49.9063C12.7776 50.2806 12.6031 50.6549 12.3888 51.0054C11.9287 51.754 11.1512 51.985 10.4293 51.6186C9.7549 51.2762 9.45342 50.5275 9.74696 49.747C10.0326 49.0063 10.3896 48.2974 10.7307 47.5806C12.2778 44.347 13.8248 41.1134 15.3719 37.8798C15.4591 37.6807 15.5226 37.4736 15.6654 37.0913Z" fill="#093E46"/>
<path d="M28.319 15.0077C27.9065 14.7051 27.2004 14.4184 27.2004 14.1237C27.1924 13.3193 27.9779 13.598 28.4539 13.5582C30.8657 13.3511 30.8657 13.3591 30.8181 15.8201C30.8181 15.852 30.8181 15.8838 30.8181 15.9157C30.7625 16.3936 30.9767 17.1104 30.2945 17.1661C29.4614 17.2378 29.7232 16.4414 29.6201 15.9635C29.6122 15.9077 29.5566 15.8679 29.4059 15.6449C28.0889 17.0148 26.7878 18.3369 25.5184 19.6909C24.138 21.1564 22.7655 21.2121 21.3375 19.8263C20.2109 18.7351 19.7428 18.7351 18.648 19.8183C18.291 20.1767 17.9419 20.5511 17.569 20.8935C17.0216 21.3953 16.6328 21.8413 16.8708 22.7572C17.1485 23.8245 16.1251 24.8678 14.9985 24.9395C13.864 25.0112 12.9279 24.1112 12.9199 22.9484C12.9199 21.7856 13.8402 20.79 14.9589 20.9334C15.6967 21.0289 16.1568 20.782 16.609 20.2882C17.1009 19.7466 17.6245 19.2449 18.1482 18.7351C19.3303 17.5803 20.6155 17.5564 21.8531 18.6555C22.1149 18.8865 22.345 19.1493 22.6227 19.3643C23.1066 19.7387 23.6779 19.8104 24.1063 19.3882C25.566 17.9068 26.9862 16.3936 28.319 15.0077ZM14.9271 21.7776C14.5384 22.2953 14.1972 22.5581 14.1258 22.8767C14.0068 23.3944 14.3638 23.7926 14.8716 23.705C15.1889 23.6493 15.657 23.259 15.6729 22.9962C15.6808 22.6776 15.2921 22.3431 14.9271 21.7776Z" fill="#008CA2"/>
<path d="M32.7704 13.037C31.6042 13.053 30.6045 12.0893 30.6283 10.9583C30.6442 9.91494 31.5883 8.91937 32.6038 8.88751C33.77 8.85565 34.7697 9.7875 34.7855 10.9264C34.7855 12.0494 33.8573 13.0211 32.7704 13.037ZM33.6986 11.1654C33.7066 11.0459 33.7066 10.9264 33.7145 10.807C33.3654 10.568 33.0164 10.1379 32.6752 10.1539C32.3817 10.1618 32.104 10.6716 31.8184 10.9583C32.1278 11.253 32.3975 11.7149 32.7545 11.7946C33.0164 11.8424 33.3813 11.3884 33.6986 11.1654Z" fill="#008CA2"/>
<path d="M23.234 16.2857C22.0995 16.3016 21.1395 15.4175 21.0998 14.3184C21.0602 13.1636 22.0043 12.176 23.1546 12.168C24.2257 12.1601 25.2253 13.1317 25.257 14.2069C25.2888 15.2981 24.3447 16.2697 23.234 16.2857ZM24.186 14.4618C24.186 14.3344 24.186 14.2149 24.186 14.0875C23.8687 13.8645 23.5751 13.514 23.226 13.4423C22.7024 13.3308 22.2343 13.6653 22.3375 14.2229C22.393 14.5494 22.8214 15.0114 23.115 15.0352C23.4561 15.0591 23.829 14.6689 24.186 14.4618Z" fill="#008CA2"/>
<path d="M30.3344 20.5817C30.6994 20.2471 30.9612 19.9047 31.3103 19.7295C31.5879 19.5861 31.9688 19.6498 32.302 19.6179C32.2464 19.9286 32.294 20.3268 32.1116 20.5259C31.8497 20.8206 31.4293 20.9799 31.0167 21.2347C31.5007 21.7684 31.7069 21.9914 31.9053 22.2303C32.175 22.5489 32.7145 22.8675 32.2702 23.3294C31.7942 23.8232 31.4293 23.2976 31.0802 23.0029C30.866 22.8197 30.6597 22.6365 30.382 22.3976C30.0964 22.6524 29.8743 22.9471 29.5887 23.0905C29.2713 23.2498 28.7398 23.4728 28.5573 23.3294C28.0654 22.9471 28.4859 22.5569 28.7794 22.2223C28.9857 21.9914 29.192 21.7604 29.4617 21.4578C29.1365 21.0914 28.7953 20.7967 28.589 20.4224C28.4621 20.1994 28.5256 19.8648 28.5097 19.5781C28.7953 19.602 29.1285 19.5383 29.3427 19.6657C29.6918 19.8887 29.9774 20.2392 30.3344 20.5817Z" fill="#008CA2"/>
<path d="M21.0126 22.6841C22.1074 22.7 23.0357 23.6717 23.0198 24.7787C23.0039 25.9097 22.0916 26.7778 20.9333 26.7858C19.8146 26.7858 18.8467 25.838 18.8705 24.7548C18.8943 23.5761 19.8384 22.6602 21.0126 22.6841ZM21.8536 24.9539C21.7584 24.1336 21.3776 23.7911 20.8698 23.9424C20.5445 24.038 20.132 24.4601 20.0923 24.7787C20.0209 25.3203 20.4731 25.6787 21.0126 25.5513C21.3617 25.4637 21.6394 25.1132 21.8536 24.9539Z" fill="#008CA2"/>
<path d="M13.3495 16.2322C13.77 15.8419 14.0794 15.4756 14.4681 15.2207C14.6506 15.1012 14.9679 15.1968 15.2297 15.1888C15.2297 15.4517 15.3329 15.7703 15.2139 15.9534C14.96 16.3437 14.603 16.6543 14.2142 17.0764C14.4999 17.395 14.8172 17.6658 15.0076 18.0003C15.1583 18.2791 15.1504 18.6375 15.2139 18.964C14.8807 18.9083 14.5078 18.9162 14.2222 18.7649C13.9048 18.5977 13.6668 18.2791 13.3257 17.9685C12.9687 18.295 12.7148 18.6295 12.3737 18.8207C12.1198 18.964 11.7707 18.9242 11.4613 18.964C11.501 18.6614 11.4613 18.3109 11.612 18.064C11.8104 17.7216 12.1515 17.4667 12.4847 17.1163C12.1277 16.726 11.7628 16.4154 11.5248 16.0251C11.3978 15.818 11.4772 15.4756 11.4613 15.1888C11.739 15.2127 12.0722 15.149 12.2864 15.2765C12.6355 15.5074 12.929 15.8579 13.3495 16.2322Z" fill="#008CA2"/>
</svg>
