<svg width="70" height="64" viewBox="0 0 70 64" fill="none" xmlns="http://www.w3.org/2000/svg">
<path d="M36.9776 53.9873C36.9776 55.7257 36.9681 57.3351 36.9833 58.9464C36.9889 59.5509 37.7307 60.1978 38.3494 60.1958C41.706 60.1843 45.0626 60.1689 48.4173 60.1631C49.2763 60.1612 49.7607 60.4904 49.8799 61.1122C50.0388 61.9477 49.5563 62.558 48.6727 62.5638C46.003 62.5811 43.3332 62.5753 40.6634 62.5772C40.0958 62.5772 39.5282 62.5772 38.9605 62.5753C38.2945 62.5715 37.7269 62.6465 37.1876 63.2125C36.3967 64.0423 34.9209 63.8478 34.0316 63.0046C33.8197 62.8044 33.481 62.6388 33.1991 62.635C29.7497 62.5946 26.3023 62.5926 22.853 62.5676C22.0564 62.5618 21.6156 62.1268 21.6099 61.4048C21.6042 60.6309 22.0432 60.1747 22.8606 60.1747C26.2645 60.1727 29.6665 60.1862 33.0704 60.1958C33.9332 60.1978 34.5576 59.5798 34.5595 58.7058C34.5633 57.1695 34.5614 55.6313 34.5614 53.968C33.392 53.968 32.2662 53.968 31.1404 53.968C28.448 53.968 25.7536 53.9622 23.0611 53.9699C19.328 53.9795 15.593 53.9988 11.8599 54.0084C10.4275 54.0123 10.1664 53.7428 10.174 52.2854C10.1891 48.8972 10.2194 45.507 10.227 42.1187C10.2364 37.4791 10.2326 32.8396 10.2251 28.2C10.2213 26.0611 10.1891 23.9204 10.1834 21.7815C10.1797 20.7381 10.471 20.457 11.4966 20.457C21.0252 20.4647 30.552 20.4782 40.0807 20.484C46.7712 20.4878 53.4616 20.4821 60.1521 20.4859C61.0641 20.4859 61.3234 20.7497 61.3234 21.6987C61.3234 24.1745 61.2912 26.6521 61.2893 29.1279C61.2836 34.9707 61.2836 40.8154 61.2893 46.6602C61.2912 48.6084 61.3252 50.5547 61.3347 52.503C61.3404 53.7177 61.1682 53.9468 59.9459 53.9738C57.8438 54.0181 55.7397 53.993 53.6376 53.995C51.4163 53.9969 49.1968 54.0007 46.9755 53.9988C44.9207 53.9969 42.8639 53.9911 40.8091 53.9873C39.5603 53.9853 38.3115 53.9873 36.9776 53.9873ZM12.6886 47.126C28.1112 47.126 43.4316 47.126 58.7596 47.126C58.7766 46.9489 58.7955 46.8296 58.7955 46.7102C58.8012 39.5891 58.8087 32.4699 58.8069 25.3488C58.8069 24.7328 58.9563 23.8472 58.6366 23.57C58.2487 23.2369 57.4313 23.3832 56.8012 23.3832C52.9489 23.3813 49.0966 23.4025 45.2442 23.4044C41.6984 23.4044 38.1545 23.3832 34.6087 23.3832C31.0875 23.3832 27.5662 23.4064 24.045 23.4064C20.5238 23.4064 17.0026 23.3987 13.4814 23.3717C12.8683 23.3659 12.6867 23.5719 12.6905 24.2053C12.7132 29.0412 12.6962 33.8753 12.6924 38.7112C12.6867 41.5008 12.6886 44.2903 12.6886 47.126ZM35.7591 49.621C35.2633 49.6133 34.8263 50.0754 34.8452 50.6048C34.866 51.1939 35.2085 51.4749 35.7534 51.4846C36.3097 51.4942 36.6389 51.2073 36.6559 50.6144C36.6711 50.0523 36.2889 49.6307 35.7591 49.621Z" fill="#093E46"/>
<path d="M63.5944 38.4087C63.5944 37.3383 63.5736 36.3815 63.6096 35.4267C63.619 35.1918 63.7818 34.9357 63.9331 34.7355C65.9255 32.0942 66.9472 29.1083 66.7353 25.7913C66.4383 21.1382 64.3437 17.4882 60.3873 15.0644C58.1981 13.7226 55.8008 13.0931 53.2086 13.249C51.7725 13.3356 50.327 13.2875 48.889 13.2355C48.6468 13.2259 48.3081 12.9371 48.1983 12.6926C46.7301 9.4507 44.5087 6.88063 41.5022 5.06714C39.014 3.56553 36.3235 2.69537 33.3869 2.58756C29.2224 2.43355 25.4779 3.61173 22.2197 6.1972C19.2377 8.56128 17.1469 11.6088 16.2122 15.3898C16.076 15.9423 15.8471 16.1155 15.2946 16.0828C12.6721 15.9288 10.1991 16.4698 8.03266 18.0234C4.58902 20.4952 3.0356 23.9336 3.24563 28.1997C3.37051 30.7486 3.99869 33.1511 5.554 35.1995C6.16894 36.0081 6.97876 36.6607 7.65803 37.4211C7.86616 37.654 8.03077 38.0044 8.05726 38.3144C8.11592 38.9997 8.07618 39.6928 8.07618 40.382C8.00617 40.4359 7.93806 40.4898 7.86805 40.5418C6.95984 39.8449 5.97783 39.2269 5.15855 38.4337C2.25984 35.6326 1.047 32.0846 0.871032 28.0842C0.685605 23.8931 2.05928 20.3297 4.99394 17.4227C7.12256 15.3147 9.70339 14.0191 12.6797 13.7842C13.8868 13.6899 14.4147 13.2028 14.8726 12.0978C16.7969 7.45047 20.0854 4.05067 24.5754 1.95804C29.4608 -0.317483 34.4976 -0.488821 39.5382 1.42477C43.8276 3.05344 47.1312 5.92576 49.4339 9.96086C49.7442 10.5057 50.0905 10.7598 50.764 10.7848C52.9286 10.8695 55.097 10.6943 57.254 11.2084C60.41 11.9611 63.0079 13.5955 65.1687 15.9866C67.6852 18.7703 68.9926 22.1027 69.1345 25.8606C69.2537 29.0564 68.5499 32.0923 66.7561 34.7586C65.9217 35.9984 64.8697 37.0842 63.9104 38.2354C63.8574 38.3009 63.7572 38.3221 63.5944 38.4087Z" fill="#093E46"/>
<path d="M28.053 39.1134C28.2366 38.8477 28.265 38.7707 28.3198 38.7341C29.4646 37.9717 29.1618 36.9995 28.6718 36.0293C28.5885 35.8618 28.3425 35.7193 28.1495 35.6827C27.8525 35.6269 27.5327 35.7097 27.2338 35.6596C27.0578 35.6308 26.7683 35.4671 26.7607 35.3497C26.7229 34.7067 26.7286 34.056 26.7948 33.4149C26.8043 33.3244 27.2224 33.2609 27.457 33.2128C27.8165 33.1416 28.3501 33.2243 28.5072 33.0106C28.8648 32.5255 29.088 31.9133 29.2545 31.3204C29.3018 31.149 28.9934 30.8468 28.8099 30.6408C28.1004 29.8438 28.0985 29.8553 28.8458 29.066C29.1221 28.7734 29.3681 28.45 29.597 28.1766C29.8051 28.2671 29.8941 28.2748 29.9243 28.3229C30.6339 29.4434 31.5232 29.555 32.543 28.7869C32.7303 28.6444 32.8666 28.3999 32.9631 28.1747C33.0331 28.0091 33.0085 27.7954 33.0066 27.6048C33.0009 26.9984 33.2658 26.7174 33.8751 26.8348C33.8978 26.8386 33.9224 26.8348 33.9451 26.8348C35.332 26.8194 35.315 26.8213 35.4361 28.1882C35.455 28.4076 35.6669 28.6906 35.8656 28.7965C36.3197 29.0372 36.8211 29.1873 37.3565 29.3952C37.5136 29.2528 37.7123 29.0872 37.8977 28.9062C38.6545 28.1631 38.6526 28.1612 39.3773 28.8812C39.4284 28.9313 39.4776 28.9832 39.5268 29.0352C40.5315 30.0902 40.471 29.7976 39.5533 30.7833C39.2392 31.1221 39.0367 31.3935 39.3925 31.8017C39.4076 31.819 39.4189 31.844 39.4208 31.8671C39.5779 32.949 40.1493 33.4169 41.2467 33.232C41.3811 33.2089 41.6043 33.5324 41.7311 33.7307C41.7935 33.8288 41.7254 34.0098 41.716 34.1542C41.6365 35.5326 41.6346 35.5172 40.3063 35.7039C40.1058 35.7328 39.8731 35.9369 39.7633 36.1255C39.2392 37.0323 38.9081 37.9294 40.0642 38.659C40.1588 38.7187 40.0963 39.0999 40.0414 39.3136C40.0112 39.431 39.8466 39.5138 39.7463 39.6139C38.7454 40.613 38.7567 40.5996 37.6536 39.6986C37.489 39.5638 37.1768 39.5927 36.9327 39.5985C36.8059 39.6023 36.6886 39.7544 36.5543 39.7833C35.6423 39.9777 35.2658 40.5245 35.4039 41.4717C35.4644 41.8913 35.2336 42.0935 34.8098 42.0492C34.7171 42.0396 34.6206 42.0473 34.526 42.053C33.0444 42.1204 33.052 42.1204 32.9763 40.5822C32.9669 40.4051 32.859 40.1452 32.7228 40.0779C32.28 39.8603 31.8108 39.6909 31.3377 39.5523C31.1977 39.5099 30.982 39.5831 30.8534 39.6774C30.6244 39.8411 30.4239 40.0528 30.2271 40.2607C29.9243 40.5803 29.6727 40.5919 29.3454 40.253C28.9537 39.8411 28.4939 39.4965 28.053 39.1134ZM34.1589 38.7206C36.5051 38.7302 38.4653 36.8244 38.4937 34.5046C38.524 32.102 36.5146 30.0864 34.1097 30.069C32.3179 30.0556 29.9319 31.8556 29.9887 34.4507C30.0417 36.8224 31.8259 38.711 34.1589 38.7206Z" fill="#008CA2"/>
<path d="M47.7324 32.8934C47.7703 33.4979 47.4373 34.1043 48.2547 34.5972C49.0664 35.0861 49.4013 34.4393 49.9878 34.2641C50.2414 34.6068 50.5384 34.9264 50.7239 35.3018C50.7958 35.4462 50.6841 35.8216 50.5441 35.914C50.0219 36.2586 50.054 36.6667 50.177 37.2096C50.2943 37.7255 50.5422 37.945 51.0209 37.9719C51.5904 38.0047 51.6661 38.3493 51.5318 38.819C51.4069 39.2502 51.5696 39.9414 50.7314 39.7431C50.3511 39.6526 50.003 39.6006 49.81 40.1088C49.6359 40.569 49.1307 40.9521 49.704 41.4873C50.0768 41.8338 50.0503 42.1784 49.5716 42.4556C49.2877 42.6212 49.0361 42.8406 48.739 43.0601C48.6236 42.9542 48.5101 42.8753 48.4287 42.7713C47.8668 42.0475 47.4694 41.932 46.6804 42.3998C46.4893 42.5134 46.3815 42.8637 46.3379 43.1236C46.1714 44.1035 45.5016 43.5125 45.0532 43.5587C44.5064 43.6145 44.5291 43.2237 44.5859 42.8387C44.635 42.498 44.8205 42.1283 44.321 41.9358C43.8366 41.7491 43.4165 41.1349 42.8432 41.8107C42.5178 42.1957 42.1999 42.1071 41.9407 41.6798C41.7572 41.3775 41.5414 41.0964 41.2841 40.7268C42.2491 40.3418 42.4762 39.616 42.022 38.8075C41.8385 38.4821 41.2917 38.3704 40.7676 38.0817C40.8054 37.6947 40.8584 37.1422 40.9095 36.5974C41.5206 36.3991 42.145 36.8977 42.637 36.068C43.1214 35.2498 42.5537 34.8859 42.2888 34.2564C42.7032 33.9484 43.1138 33.6461 43.5414 33.3285C43.6549 33.4171 43.759 33.4748 43.8347 33.5614C44.4534 34.2718 44.7297 34.3507 45.5735 33.958C45.7211 33.8887 45.8403 33.6577 45.8876 33.4787C46.126 32.5642 46.1147 32.5604 47.0645 32.7548C47.267 32.7991 47.4732 32.8414 47.7324 32.8934ZM46.1601 40.3514C47.3313 40.3456 48.3076 39.3388 48.3171 38.1298C48.3266 36.9324 47.3521 35.9409 46.1525 35.9294C44.9756 35.9178 43.9444 36.9304 43.9425 38.099C43.9406 39.3041 44.9794 40.3572 46.1601 40.3514Z" fill="#008CA2"/>
<path d="M23.4265 34.4609C24.0074 35.7662 24.5277 35.8413 25.3299 34.7497C25.5854 34.8671 25.8711 34.9673 26.1208 35.129C26.2268 35.1963 26.3252 35.4023 26.3044 35.5255C26.0868 36.8558 26.2609 37.0618 27.5475 36.8654C27.6478 37.2158 27.7518 37.5758 27.8597 37.9531C27.5589 38.2746 26.7717 38.0898 26.942 38.8233C27.0328 39.2122 27.2391 39.5722 27.3942 39.9437C27.4794 39.938 27.5626 39.9322 27.6478 39.9283C27.4567 40.2652 27.2656 40.6021 27.0612 40.966C26.592 40.8447 26.1152 40.3403 25.7481 41.0026C25.6176 41.2374 25.487 41.5378 25.5192 41.788C25.5873 42.3155 25.2391 42.2963 24.9269 42.3964C24.6053 42.5003 24.3782 42.5658 24.2041 42.1365C23.8901 41.3549 23.1786 41.3106 22.6942 42.0017C22.6413 42.0768 22.5731 42.1384 22.4842 42.2385C22.2231 42.1095 21.9431 42.021 21.733 41.8458C21.6176 41.7495 21.5155 41.4261 21.5779 41.351C21.9355 40.9236 21.7804 40.5617 21.4341 40.3076C21.2165 40.1478 20.8778 40.1574 20.5921 40.0997C20.5032 40.0824 20.4105 40.0978 20.2894 40.0978C20.2213 39.9129 20.1399 39.7416 20.0926 39.5606C20.0453 39.3778 20.032 39.1852 19.9961 38.9465C20.5543 38.8156 21.0538 38.6154 20.8986 37.8858C20.8702 37.7529 20.8513 37.5566 20.7643 37.5084C19.8126 36.9867 20.4578 36.5324 20.8097 36.0107C21.3149 36.3149 21.8125 36.4862 22.208 35.8817C22.2799 35.772 22.4047 35.6218 22.3764 35.5332C22.0358 34.4744 22.8816 34.6612 23.4265 34.4609ZM22.3423 38.3767C22.3253 39.3315 23.0405 40.0901 23.9582 40.092C24.7491 40.0939 25.434 39.4028 25.4529 38.5827C25.4756 37.6201 24.7718 36.8789 23.8352 36.8751C23.0424 36.8731 22.3574 37.5623 22.3423 38.3767Z" fill="#008CA2"/>
<path d="M37.273 34.357C37.2522 36.1975 35.8974 37.5913 34.1453 37.5759C32.5692 37.5624 31.1255 36.0569 31.1388 34.4379C31.1539 32.661 32.6146 31.2884 34.45 31.3249C35.9561 31.3557 37.2919 32.788 37.273 34.357ZM34.2305 32.6976C33.3241 32.713 32.5257 33.5504 32.5295 34.4783C32.5332 35.4024 33.3147 36.1782 34.2172 36.1551C35.1765 36.1282 35.9334 35.3004 35.905 34.3031C35.8804 33.4137 35.1179 32.6822 34.2305 32.6976Z" fill="#008CA2"/>
</svg>
