<svg width="160" height="34" viewBox="0 0 160 34" fill="none" xmlns="http://www.w3.org/2000/svg">
<path d="M33.4884 17.2442C33.4884 7.99663 25.9917 0.5 16.7442 0.5C7.49663 0.5 0 7.99663 0 17.2442C0 26.4917 7.49663 33.9884 16.7442 33.9884C25.9917 33.9884 33.4884 26.4917 33.4884 17.2442Z" fill="url(#paint0_linear_7_768)"/>
<path d="M33.4884 17.2442C33.4884 7.99663 25.9917 0.5 16.7442 0.5C7.49663 0.5 0 7.99663 0 17.2442C0 26.4917 7.49663 33.9884 16.7442 33.9884C25.9917 33.9884 33.4884 26.4917 33.4884 17.2442Z" fill="#AA6C6C"/>
<path d="M17.0105 6.77734C19.662 6.77734 22.1651 7.75698 24.1021 9.54298C24.2095 9.64202 24.2106 9.81018 24.1073 9.91344L20.0073 14.0134C19.9081 14.1128 19.7486 14.1152 19.6399 14.0262C18.8994 13.42 17.9806 13.0907 17.0122 13.0907C14.7196 13.0892 12.8555 14.9533 12.8555 17.2425H6.54053C6.54053 11.472 11.2383 6.77734 17.0105 6.77734Z" fill="white"/>
<path d="M12.8555 17.2422C12.8555 19.3908 14.4972 21.1642 16.5928 21.3747C16.7326 21.3888 16.8437 21.5033 16.8437 21.6437V27.4416C16.8437 27.5876 16.7233 27.7058 16.5773 27.6998C11.0039 27.4714 6.54053 22.8678 6.54053 17.2422H12.8555Z" fill="white"/>
<path opacity="0.56" d="M23.2323 18.0742H20.7632C20.6186 18.0742 20.5015 18.1914 20.5015 18.3359V20.8033C20.5015 20.9479 20.6186 21.065 20.7632 21.065H23.2323C23.3767 21.065 23.4938 20.9479 23.4938 20.8033V18.3359C23.4938 18.1914 23.3767 18.0742 23.2323 18.0742Z" fill="white"/>
<path opacity="0.4" d="M26.5549 18.0742H24.0858C23.9413 18.0742 23.8242 18.1914 23.8242 18.3359V20.8033C23.8242 20.9479 23.9413 21.065 24.0858 21.065H26.5549C26.6994 21.065 26.8166 20.9479 26.8166 20.8033V18.3359C26.8166 18.1914 26.6994 18.0742 26.5549 18.0742Z" fill="white"/>
<path opacity="0.72" d="M23.2323 21.3984H20.7632C20.6186 21.3984 20.5015 21.5155 20.5015 21.66V24.1275C20.5015 24.272 20.6186 24.3891 20.7632 24.3891H23.2323C23.3767 24.3891 23.4938 24.272 23.4938 24.1275V21.66C23.4938 21.5155 23.3767 21.3984 23.2323 21.3984Z" fill="white"/>
<path opacity="0.88" d="M19.9084 21.3984H17.4392C17.2948 21.3984 17.1777 21.5155 17.1777 21.66V24.1275C17.1777 24.272 17.2948 24.3891 17.4392 24.3891H19.9084C20.0529 24.3891 20.17 24.272 20.17 24.1275V21.66C20.17 21.5155 20.0529 21.3984 19.9084 21.3984Z" fill="white"/>
<path opacity="0.56" d="M26.5549 21.3984H24.0858C23.9413 21.3984 23.8242 21.5155 23.8242 21.66V24.1275C23.8242 24.272 23.9413 24.3891 24.0858 24.3891H26.5549C26.6994 24.3891 26.8166 24.272 26.8166 24.1275V21.66C26.8166 21.5155 26.6994 21.3984 26.5549 21.3984Z" fill="white"/>
<path opacity="0.88" d="M23.2323 24.7188H20.7632C20.6186 24.7188 20.5015 24.8359 20.5015 24.9804V27.4478C20.5015 27.5923 20.6186 27.7094 20.7632 27.7094H23.2323C23.3767 27.7094 23.4938 27.5923 23.4938 27.4478V24.9804C23.4938 24.8359 23.3767 24.7188 23.2323 24.7188Z" fill="white"/>
<path opacity="0.96" d="M19.9084 24.7188H17.4392C17.2948 24.7188 17.1777 24.8359 17.1777 24.9804V27.4478C17.1777 27.5923 17.2948 27.7094 17.4392 27.7094H19.9084C20.0529 27.7094 20.17 27.5923 20.17 27.4478V24.9804C20.17 24.8359 20.0529 24.7188 19.9084 24.7188Z" fill="white"/>
<path opacity="0.72" d="M26.5549 24.7188H24.0858C23.9413 24.7188 23.8242 24.8359 23.8242 24.9804V27.4478C23.8242 27.5923 23.9413 27.7094 24.0858 27.7094H26.5549C26.6994 27.7094 26.8166 27.5923 26.8166 27.4478V24.9804C26.8166 24.8359 26.6994 24.7188 26.5549 24.7188Z" fill="white"/>
<path d="M52.9693 9.91902H55.6065V25.039C55.6065 26.006 55.3815 26.9046 54.9315 27.7348C54.4919 28.5748 53.8955 29.3025 53.142 29.9179C52.3885 30.5429 51.5303 31.0265 50.5676 31.3683C49.6048 31.72 48.6001 31.8958 47.5536 31.8958C46.4652 31.8958 45.4135 31.6663 44.3983 31.2072C43.3833 30.7579 42.4937 30.1522 41.7298 29.3904C40.9763 28.6383 40.4321 27.7935 40.0972 26.8558L42.5146 25.8302C42.7135 26.5041 43.0693 27.1097 43.5821 27.6469C44.1053 28.1939 44.7123 28.6237 45.403 28.9362C46.1042 29.2586 46.821 29.4197 47.5536 29.4197C48.2443 29.4197 48.9089 29.3074 49.5472 29.0828C50.196 28.8581 50.7769 28.5455 51.2896 28.1451C51.8129 27.7544 52.221 27.2905 52.5141 26.7533C52.8175 26.2258 52.9693 25.6544 52.9693 25.039V22.1234C52.4356 22.9634 51.7291 23.6471 50.8501 24.1746C49.9815 24.6923 48.9663 24.9511 47.8048 24.9511C46.6955 24.9511 45.6542 24.7509 44.6809 24.3505C43.7076 23.95 42.8547 23.3981 42.1222 22.6948C41.3896 21.9818 40.8141 21.1614 40.3955 20.2334C39.9769 19.3055 39.7676 18.3093 39.7676 17.2446C39.7676 16.18 39.9769 15.1837 40.3955 14.2558C40.8141 13.3181 41.3896 12.4976 42.1222 11.7944C42.8547 11.0814 43.7076 10.5246 44.6809 10.1241C45.6542 9.72367 46.6955 9.52344 47.8048 9.52344C48.9663 9.52344 49.9815 9.78228 50.8501 10.2999C51.7291 10.8176 52.4356 11.5014 52.9693 12.3511V9.91902ZM47.8205 22.563C48.8356 22.563 49.7146 22.3188 50.4577 21.8305C51.2112 21.3421 51.7919 20.6925 52.2001 19.8818C52.6082 19.0711 52.8123 18.1921 52.8123 17.2446C52.8123 16.2679 52.603 15.379 52.1844 14.5781C51.7763 13.7674 51.1955 13.1228 50.442 12.6441C49.6989 12.1558 48.8251 11.9116 47.8205 11.9116C46.8368 11.9116 45.9368 12.1509 45.1205 12.6295C44.3042 13.1081 43.6554 13.7528 43.174 14.5635C42.703 15.3644 42.4676 16.2581 42.4676 17.2446C42.4676 18.2311 42.7082 19.1297 43.1897 19.9404C43.6815 20.7414 44.3303 21.3812 45.1361 21.8598C45.9524 22.3286 46.8472 22.563 47.8205 22.563Z" fill="white"/>
<path d="M58.125 24.5692V9.91804H60.7622V11.7495C61.3169 11.0658 62.018 10.5236 62.8658 10.1232C63.7134 9.71293 64.6343 9.50781 65.6286 9.50781C66.2355 9.50781 66.8216 9.58107 67.3867 9.72758L66.3193 12.189C65.8901 12.062 65.4715 11.9985 65.0634 11.9985C64.2785 11.9985 63.5565 12.1792 62.8971 12.5406C62.2483 12.8923 61.7302 13.3709 61.3431 13.9765C60.9558 14.582 60.7622 15.256 60.7622 15.9983V24.5692H58.125Z" fill="white"/>
<path d="M79.8836 9.91804H82.5208V24.5692H79.8836L79.7738 22.0932C79.2818 22.943 78.6017 23.6315 77.733 24.159C76.8749 24.6864 75.8493 24.9501 74.6563 24.9501C73.5051 24.9501 72.4272 24.7499 71.4226 24.3495C70.4179 23.9392 69.5283 23.3776 68.7539 22.6645C67.99 21.9418 67.3935 21.1115 66.9644 20.1738C66.5353 19.2362 66.3208 18.2253 66.3208 17.1411C66.3208 16.096 66.5301 15.1095 66.9487 14.1816C67.3673 13.2537 67.9482 12.443 68.6911 11.7495C69.4446 11.0462 70.3133 10.4993 71.297 10.1086C72.2807 9.70804 73.3377 9.50781 74.4679 9.50781C75.7028 9.50781 76.7859 9.7813 77.7174 10.3283C78.6487 10.8655 79.4022 11.5639 79.9778 12.4234L79.8836 9.91804ZM74.6092 22.562C75.6453 22.562 76.54 22.3276 77.2935 21.8588C78.0575 21.3802 78.6435 20.7355 79.0516 19.9248C79.4702 19.1141 79.6795 18.2204 79.6795 17.2436C79.6795 16.2473 79.4702 15.3487 79.0516 14.5478C78.633 13.7371 78.0417 13.0974 77.2778 12.6285C76.5243 12.1499 75.6348 11.9106 74.6092 11.9106C73.5732 11.9106 72.6313 12.1499 71.7836 12.6285C70.936 13.1071 70.2609 13.7518 69.7586 14.5625C69.2668 15.3634 69.0208 16.2571 69.0208 17.2436C69.0208 18.2301 69.2772 19.1287 69.79 19.9394C70.3028 20.7404 70.983 21.3802 71.8307 21.8588C72.6784 22.3276 73.6045 22.562 74.6092 22.562Z" fill="white"/>
<path d="M94.6649 9.91797H97.4593L88.8725 31.8947H86.0783L88.9196 24.5692L83.2842 9.91797H86.1725L90.2382 21.1847L94.6649 9.91797Z" fill="white"/>
<path d="M110.798 9.91902H113.435V25.039C113.435 26.006 113.21 26.9046 112.76 27.7348C112.321 28.5748 111.724 29.3025 110.97 29.9179C110.217 30.5429 109.359 31.0265 108.396 31.3683C107.433 31.72 106.429 31.8958 105.382 31.8958C104.294 31.8958 103.242 31.6663 102.227 31.2072C101.212 30.7579 100.323 30.1522 99.558 29.3904C98.8046 28.6383 98.2604 27.7935 97.9255 26.8558L100.343 25.8302C100.542 26.5041 100.898 27.1097 101.411 27.6469C101.934 28.1939 102.541 28.6237 103.232 28.9362C103.933 29.2586 104.649 29.4197 105.382 29.4197C106.073 29.4197 106.738 29.3074 107.376 29.0828C108.025 28.8581 108.606 28.5455 109.118 28.1451C109.642 27.7544 110.049 27.2905 110.342 26.7533C110.647 26.2258 110.798 25.6544 110.798 25.039V22.1234C110.264 22.9634 109.558 23.6471 108.679 24.1746C107.81 24.6923 106.795 24.9511 105.633 24.9511C104.524 24.9511 103.483 24.7509 102.51 24.3505C101.537 23.95 100.684 23.3981 99.9506 22.6948C99.2185 21.9818 98.6427 21.1614 98.2241 20.2334C97.8055 19.3055 97.5962 18.3093 97.5962 17.2446C97.5962 16.18 97.8055 15.1837 98.2241 14.2558C98.6427 13.3181 99.2185 12.4976 99.9506 11.7944C100.684 11.0814 101.537 10.5246 102.51 10.1241C103.483 9.72367 104.524 9.52344 105.633 9.52344C106.795 9.52344 107.81 9.78228 108.679 10.2999C109.558 10.8176 110.264 11.5014 110.798 12.3511V9.91902ZM105.649 22.563C106.664 22.563 107.543 22.3188 108.287 21.8305C109.04 21.3421 109.62 20.6925 110.029 19.8818C110.437 19.0711 110.641 18.1921 110.641 17.2446C110.641 16.2679 110.432 15.379 110.013 14.5781C109.605 13.7674 109.024 13.1228 108.271 12.6441C107.527 12.1558 106.654 11.9116 105.649 11.9116C104.665 11.9116 103.766 12.1509 102.949 12.6295C102.133 13.1081 101.484 13.7528 101.003 14.5635C100.532 15.3644 100.296 16.2581 100.296 17.2446C100.296 18.2311 100.537 19.1297 101.019 19.9404C101.51 20.7414 102.159 21.3812 102.965 21.8598C103.781 22.3286 104.676 22.563 105.649 22.563Z" fill="white"/>
<path d="M115.953 24.5692V9.91804H118.591V11.7495C119.146 11.0658 119.847 10.5236 120.695 10.1232C121.542 9.71293 122.463 9.50781 123.458 9.50781C124.064 9.50781 124.65 9.58107 125.216 9.72758L124.148 12.189C123.719 12.062 123.3 11.9985 122.892 11.9985C122.107 11.9985 121.385 12.1792 120.726 12.5406C120.077 12.8923 119.559 13.3709 119.172 13.9765C118.785 14.582 118.591 15.256 118.591 15.9983V24.5692H115.953Z" fill="white"/>
<path d="M125.888 9.91794H128.526V24.5691H125.888V9.91794ZM127.239 7.5298C126.82 7.5298 126.47 7.40282 126.187 7.14887C125.904 6.89491 125.763 6.57747 125.763 6.19654C125.763 5.81561 125.904 5.49817 126.187 5.24421C126.47 4.99026 126.815 4.86328 127.223 4.86328C127.632 4.86328 127.977 4.99026 128.26 5.24421C128.541 5.49817 128.683 5.81561 128.683 6.19654C128.683 6.57747 128.541 6.89491 128.26 7.14887C127.987 7.40282 127.646 7.5298 127.239 7.5298Z" fill="white"/>
<path d="M143.463 2.59375H146.1V24.5705H143.463V22.0798C142.929 22.9393 142.212 23.6328 141.313 24.1602C140.412 24.6877 139.355 24.9514 138.141 24.9514C137.001 24.9514 135.933 24.7512 134.939 24.3507C133.945 23.9503 133.066 23.3984 132.301 22.6951C131.548 21.9821 130.957 21.1616 130.528 20.2337C130.099 19.3058 129.885 18.3095 129.885 17.2449C129.885 16.1802 130.099 15.184 130.528 14.256C130.957 13.3184 131.548 12.4979 132.301 11.7946C133.066 11.0816 133.945 10.5249 134.939 10.1245C135.933 9.72398 137.001 9.52375 138.141 9.52375C139.355 9.52375 140.412 9.78747 141.313 10.315C142.212 10.8424 142.929 11.5359 143.463 12.3954V2.59375ZM138.173 22.5633C139.208 22.5633 140.103 22.3289 140.857 21.86C141.621 21.3814 142.207 20.7368 142.615 19.9261C143.033 19.1154 143.243 18.2216 143.243 17.2449C143.243 16.2486 143.033 15.35 142.615 14.5491C142.196 13.7384 141.606 13.0986 140.841 12.6298C140.087 12.1512 139.198 11.9119 138.173 11.9119C137.137 11.9119 136.194 12.1512 135.347 12.6298C134.51 13.1084 133.84 13.7531 133.338 14.5638C132.835 15.3647 132.584 16.2584 132.584 17.2449C132.584 18.2314 132.841 19.13 133.353 19.9407C133.866 20.7416 134.547 21.3814 135.394 21.86C136.242 22.3289 137.168 22.5633 138.173 22.5633Z" fill="white"/>
<path d="M153.398 24.8495C152.55 24.8202 151.724 24.6738 150.917 24.41C150.122 24.1366 149.421 23.7703 148.814 23.3112C148.218 22.8424 147.783 22.3052 147.511 21.6996L149.771 20.7912C149.928 21.1233 150.211 21.4359 150.62 21.7289C151.027 22.0219 151.499 22.2563 152.032 22.4321C152.566 22.608 153.105 22.6959 153.649 22.6959C154.224 22.6959 154.764 22.6129 155.266 22.4468C155.768 22.2808 156.176 22.0366 156.49 21.7143C156.815 21.3822 156.977 20.9866 156.977 20.5275C156.977 20.0391 156.799 19.6582 156.443 19.3847C156.098 19.1014 155.659 18.8816 155.125 18.7254C154.601 18.5594 154.068 18.403 153.524 18.2566C152.446 18.0026 151.483 17.6999 150.635 17.3482C149.787 16.9868 149.117 16.5326 148.626 15.9856C148.144 15.4289 147.903 14.7208 147.903 13.8613C147.903 12.9529 148.17 12.1666 148.704 11.5024C149.248 10.8382 149.96 10.3254 150.839 9.96402C151.718 9.60258 152.66 9.42188 153.664 9.42188C154.931 9.42188 156.087 9.67582 157.134 10.1837C158.18 10.6917 158.96 11.3803 159.473 12.2496L157.353 13.407C157.176 13.0554 156.903 12.7478 156.538 12.484C156.171 12.2106 155.753 11.9957 155.282 11.8394C154.81 11.6831 154.329 11.6 153.837 11.5903C153.231 11.5707 152.66 11.644 152.126 11.8101C151.603 11.9761 151.18 12.2301 150.855 12.5719C150.54 12.904 150.384 13.3191 150.384 13.8173C150.384 14.3056 150.552 14.6768 150.886 14.9307C151.232 15.1847 151.676 15.3898 152.22 15.5461C152.775 15.6926 153.377 15.8636 154.026 16.0589C154.978 16.3422 155.868 16.6694 156.694 17.0405C157.521 17.4117 158.185 17.8757 158.687 18.4324C159.201 18.9892 159.452 19.6777 159.441 20.4982C159.441 21.3968 159.153 22.1831 158.578 22.8571C158.003 23.5213 157.254 24.0291 156.333 24.3807C155.422 24.7324 154.445 24.8886 153.398 24.8495Z" fill="white"/>
<defs>
<linearGradient id="paint0_linear_7_768" x1="16.7442" y1="0.5" x2="16.7442" y2="33.9884" gradientUnits="userSpaceOnUse">
<stop stopColor="#3558EA"/>
<stop offset="1" stopColor="#0000FF"/>
</linearGradient>
</defs>
</svg>
