<svg width="1455" height="482" viewBox="0 0 1455 482" fill="none" xmlns="http://www.w3.org/2000/svg">
<rect opacity="0.8" x="1305.63" y="232.665" width="244.302" height="206.639" rx="23.5" transform="rotate(89.011 1305.63 232.665)" stroke="url(#paint0_linear_7_293)"/>
<rect opacity="0.8" x="1079.47" y="248.562" width="207.639" height="207.639" rx="24" fill="url(#paint1_linear_7_293)"/>
<rect opacity="0.8" x="1368.12" y="168.324" width="207.639" height="207.639" rx="55" fill="url(#paint2_linear_7_293)"/>
<rect opacity="0.8" x="1497.05" y="159.512" width="207.639" height="207.639" rx="55" transform="rotate(139.797 1497.05 159.512)" fill="url(#paint3_linear_7_293)"/>
<rect opacity="0.8" x="117.882" y="346.048" width="126.615" height="107.021" rx="23.5" transform="rotate(89.011 117.882 346.048)" stroke="url(#paint4_linear_7_293)"/>
<rect opacity="0.8" x="0.458984" y="354.074" width="108.021" height="108.021" rx="24" fill="url(#paint5_linear_7_293)"/>
<rect opacity="0.8" x="169.713" y="337.895" width="108.021" height="108.021" rx="28" transform="rotate(139.797 169.713 337.895)" fill="url(#paint6_linear_7_293)"/>
<defs>
<linearGradient id="paint0_linear_7_293" x1="1361.51" y1="123.132" x2="1393.65" y2="365.623" gradientUnits="userSpaceOnUse">
<stop stopColor="#0D8595"/>
<stop offset="1" stopColor="#08616C" stopOpacity="0.06"/>
</linearGradient>
<linearGradient id="paint1_linear_7_293" x1="1126.35" y1="139.539" x2="1164.06" y2="380.385" gradientUnits="userSpaceOnUse">
<stop stopColor="#0D8595"/>
<stop offset="1" stopColor="#08616C" stopOpacity="0.06"/>
</linearGradient>
<linearGradient id="paint2_linear_7_293" x1="1415" y1="59.3003" x2="1494.97" y2="323.3" gradientUnits="userSpaceOnUse">
<stop offset="0.426619" stopColor="#0D8595"/>
<stop offset="1" stopColor="#08616C" stopOpacity="0.06"/>
</linearGradient>
<linearGradient id="paint3_linear_7_293" x1="1543.94" y1="50.4878" x2="1623.9" y2="314.487" gradientUnits="userSpaceOnUse">
<stop offset="0.426619" stopColor="#0D8595"/>
<stop offset="1" stopColor="#08616C" stopOpacity="0.06"/>
</linearGradient>
<linearGradient id="paint4_linear_7_293" x1="147.189" y1="288.821" x2="163.908" y2="414.973" gradientUnits="userSpaceOnUse">
<stop stopColor="#0D8595"/>
<stop offset="1" stopColor="#08616C" stopOpacity="0.06"/>
</linearGradient>
<linearGradient id="paint5_linear_7_293" x1="24.8505" y1="297.356" x2="44.4687" y2="422.653" gradientUnits="userSpaceOnUse">
<stop stopColor="#0D8595"/>
<stop offset="1" stopColor="#08616C" stopOpacity="0.06"/>
</linearGradient>
<linearGradient id="paint6_linear_7_293" x1="194.104" y1="281.176" x2="235.706" y2="418.518" gradientUnits="userSpaceOnUse">
<stop offset="0.426619" stopColor="#0D8595"/>
<stop offset="1" stopColor="#08616C" stopOpacity="0.06"/>
</linearGradient>
</defs>
</svg>
