<svg width="17" height="17" viewBox="0 0 17 17" fill="none" xmlns="http://www.w3.org/2000/svg">
<g clipPath="url(#clip0_7_129)">
<path d="M15.2196 0.550781H1.99991C1.37516 0.550781 0.875366 1.04827 0.875366 1.67014V14.8537C0.875366 15.4507 1.37516 15.973 1.99991 15.973H15.1696C15.7943 15.973 16.2941 15.4755 16.2941 14.8537V1.64526C16.3441 1.04827 15.8443 0.550781 15.2196 0.550781ZM5.44852 13.6597H3.17444V6.32168H5.44852V13.6597ZM4.29899 5.30182C3.54929 5.30182 2.97452 4.70483 2.97452 3.98347C2.97452 3.26211 3.57428 2.66512 4.29899 2.66512C5.02369 2.66512 5.62345 3.26211 5.62345 3.98347C5.62345 4.70483 5.07367 5.30182 4.29899 5.30182ZM14.07 13.6597H11.796V10.1026C11.796 9.25688 11.771 8.13752 10.5964 8.13752C9.39693 8.13752 9.222 9.08276 9.222 10.028V13.6597H6.94792V6.32168H9.17202V7.34154H9.19701C9.52188 6.74455 10.2466 6.14756 11.3711 6.14756C13.6952 6.14756 14.12 7.64003 14.12 9.67975V13.6597H14.07Z" fill="#CED3F6"/>
</g>
<defs>
<clipPath id="clip0_7_129">
<rect width="17" height="16" fill="white" transform="translate(0 0.550781)"/>
</clipPath>
</defs>
</svg>
