<svg width="37" height="37" viewBox="0 0 37 37" fill="none" xmlns="http://www.w3.org/2000/svg">
<rect x="0.953125" y="0.46875" width="36" height="36" rx="6" fill="#4A6CF7" fill-opacity="0.1"/>
<g clipPath="url(#clip0_7_85)">
<path d="M25.2973 10.4688H12.0777C11.4529 10.4688 10.9531 10.9662 10.9531 11.5881V24.7717C10.9531 25.3687 11.4529 25.891 12.0777 25.891H25.2473C25.8721 25.891 26.3719 25.3935 26.3719 24.7717V11.5632C26.4219 10.9662 25.9221 10.4688 25.2973 10.4688ZM15.5263 23.5777H13.2522V16.2396H15.5263V23.5777ZM14.3767 15.2198C13.627 15.2198 13.0523 14.6228 13.0523 13.9014C13.0523 13.1801 13.652 12.5831 14.3767 12.5831C15.1015 12.5831 15.7012 13.1801 15.7012 13.9014C15.7012 14.6228 15.1514 15.2198 14.3767 15.2198ZM24.1478 23.5777H21.8737V20.0206C21.8737 19.1749 21.8487 18.0555 20.6742 18.0555C19.4747 18.0555 19.2998 19.0007 19.2998 19.946V23.5777H17.0257V16.2396H19.2498V17.2595H19.2748C19.5996 16.6625 20.3243 16.0655 21.4489 16.0655C23.7729 16.0655 24.1978 17.558 24.1978 19.5977V23.5777H24.1478Z" fill="#F4F4F4"/>
</g>
<defs>
<clipPath id="clip0_7_85">
<rect width="16" height="16" fill="white" transform="translate(10.9531 10.4688)"/>
</clipPath>
</defs>
</svg>
