<svg width="160" height="27" viewBox="0 0 160 27" fill="none" xmlns="http://www.w3.org/2000/svg">
<mask id="mask0_7_746" style="mask-type:luminance" maskUnits="userSpaceOnUse" x="0" y="0" width="160" height="27">
<path d="M160 0.5H0V26.5233H160V0.5Z" fill="white"/>
</mask>
<g mask="url(#mask0_7_746)">
<path d="M38.1805 2.5H34.4062V24.047H47.206V20.5706H38.1805V2.5Z" fill="white"/>
<path d="M51.5364 6.56498C52.715 6.56498 53.6885 5.59159 53.6885 4.37981C53.6885 3.16805 52.715 2.23438 51.5364 2.23438C50.2982 2.23438 49.3247 3.18128 49.3247 4.38644C49.3247 5.59159 50.3048 6.56498 51.5364 6.56498ZM49.7485 24.0462H53.3441V9.47848H49.7485V24.0462Z" fill="white"/>
<path d="M60.6546 24.0478V16.2077C60.6546 13.8504 62.0055 12.3141 64.2237 12.3141C66.0844 12.3141 67.2896 13.4928 67.2896 15.9428V24.0544H70.8852V15.082C70.8852 11.3076 68.998 9.04297 65.3428 9.04297C63.3695 9.04297 61.6015 9.89714 60.6878 11.3738L60.3898 9.48666H57.0591V24.0544H60.6546V24.0478Z" fill="white"/>
<path d="M80.9371 24.4307C84.738 24.4307 87.3932 22.517 88.0091 19.3253H84.6784C84.2612 20.7093 82.97 21.4774 80.9901 21.4774C78.5997 21.4774 77.2488 20.1795 76.984 17.6169L87.9493 17.5839V16.4979C87.9493 11.9554 85.175 9.03516 80.8113 9.03516C76.5403 9.03516 73.5605 12.1871 73.5605 16.7627C73.5605 21.2721 76.5999 24.4307 80.9371 24.4307ZM80.8445 11.9885C82.9965 11.9885 84.3804 13.3128 84.3804 15.3192H77.0701C77.421 13.1406 78.7189 11.9885 80.8445 11.9885Z" fill="white"/>
<path d="M92.6245 6.56498C93.8025 6.56498 94.7757 5.59159 94.7757 4.37981C94.7757 3.16805 93.8025 2.23438 92.6245 2.23438C91.3858 2.23438 90.4194 3.18128 90.4194 4.38644C90.4194 5.59159 91.3788 6.56498 92.6245 6.56498ZM90.8228 24.0462H94.4184V9.47848H90.8228V24.0462Z" fill="white"/>
<path d="M97.2861 16.7374C97.2861 21.366 100.173 24.4319 104.596 24.4319C108.398 24.4319 111.231 22.101 111.669 18.7107H108.04C107.656 20.3065 106.391 21.1872 104.589 21.1872C102.292 21.1872 100.875 19.4788 100.875 16.7374C100.875 13.996 102.411 12.2545 104.709 12.2545C106.417 12.2545 107.629 13.1087 108.04 14.7641H111.636C111.251 11.2546 108.536 9.04297 104.563 9.04297C100.266 9.04297 97.2861 12.2281 97.2861 16.7374Z" fill="white"/>
<path d="M113.489 16.7383C113.489 21.2808 116.761 24.4062 121.276 24.4062C125.786 24.4062 129.063 21.2874 129.063 16.7383C129.063 12.1958 125.792 9.07031 121.276 9.07031C116.767 9.07693 113.489 12.1958 113.489 16.7383ZM117.092 16.7383C117.092 14.083 118.8 12.2886 121.276 12.2886C123.753 12.2886 125.462 14.0896 125.462 16.7383C125.462 19.387 123.753 21.1881 121.276 21.1881C118.8 21.1947 117.092 19.3936 117.092 16.7383Z" fill="white"/>
<path d="M135.5 24.0478V16.2077C135.5 13.8504 136.851 12.3141 139.069 12.3141C140.93 12.3141 142.135 13.4928 142.135 15.9428V24.0544H145.731V15.082C145.731 11.3076 143.843 9.04297 140.188 9.04297C138.215 9.04297 136.447 9.89714 135.533 11.3738L135.235 9.48666H131.904V24.0544H135.5V24.0478Z" fill="white"/>
<path d="M160 19.6576C160 22.6043 157.497 24.4385 153.902 24.4385C150.273 24.4385 147.982 22.4851 147.976 19.6378H151.385C151.412 20.9025 152.359 21.7037 154.008 21.7037C155.683 21.7037 156.603 21.0217 156.603 19.9622C156.603 19.2205 156.226 18.6975 154.928 18.3995L152.299 17.777C149.677 17.1877 148.413 15.9494 148.413 13.6186C148.413 10.758 150.822 9.04297 154.186 9.04297C157.458 9.04297 159.663 10.9368 159.696 13.7643H156.279C156.259 12.526 155.425 11.7314 154.041 11.7314C152.63 11.7314 151.803 12.3803 151.803 13.4663C151.803 14.294 152.458 14.8171 153.69 15.1151L156.319 15.7376C158.577 16.2475 159.815 17.2539 159.98 19.1676L160 19.6576Z" fill="white"/>
<path d="M20.5733 3.58096C21.5202 4.52785 21.5202 6.05746 20.5733 7.00436L4.13165 23.4461C3.18474 24.393 1.65513 24.393 0.708226 23.4461C-0.23868 22.4992 -0.23868 20.9696 0.708226 20.0226L17.1499 3.58096C18.0968 2.63406 19.6264 2.63406 20.5733 3.58096Z" fill="#E2CF1D"/>
<path d="M20.1364 15.719C21.0833 16.666 21.0833 18.1956 20.1364 19.1425L13.4618 25.8172C12.5149 26.7641 10.9852 26.7641 10.0383 25.8172C9.09141 24.8703 9.09141 23.3407 10.0383 22.3937L16.7131 15.719C17.66 14.7787 19.1895 14.7787 20.1364 15.719Z" fill="#E2CF1D"/>
<path d="M11.2434 1.21126C12.1903 2.15816 12.1903 3.68776 11.2434 4.63466L4.56866 11.3094C3.62176 12.2563 2.09214 12.2563 1.14524 11.3094C0.198332 10.3625 0.198332 8.83286 1.14524 7.88596L7.81992 1.21126C8.76682 0.264256 10.2965 0.264256 11.2434 1.21126Z" fill="#E2CF1D"/>
</g>
</svg>
