<svg width="80" height="81" viewBox="0 0 80 81" fill="none" xmlns="http://www.w3.org/2000/svg">
<g clipPath="url(#clip0_293_3278)">
<rect y="0.675781" width="79.6367" height="79.6367" fill="#06284D"/>
<path d="M45.1779 35.5226C43.7685 34.1191 42.0954 33.0058 40.254 32.2462C38.4126 31.4866 36.439 31.0957 34.4459 31.0957C32.4527 31.0957 30.4792 31.4866 28.6378 32.2462C26.7964 33.0058 25.1232 34.1191 23.7139 35.5226L34.4459 46.21L45.1779 35.5226Z" fill="#FFD200"/>
<path d="M34.459 46.2265C35.8683 47.63 37.5415 48.7433 39.3829 49.5029C41.2242 50.2624 43.1979 50.6534 45.191 50.6534C47.184 50.6534 49.1579 50.2624 50.9992 49.5029C52.8405 48.7433 54.5139 47.63 55.9231 46.2265L45.191 35.5391L34.459 46.2265Z" fill="#06E07F"/>
<path d="M34.4328 46.2226C33.0234 47.6261 31.3503 48.7394 29.5089 49.499C27.6675 50.2585 25.6939 50.6495 23.7008 50.6495C21.7076 50.6495 19.7341 50.2585 17.8926 49.499C16.0513 48.7394 14.3781 47.6261 12.9688 46.2226L23.7008 35.5352L34.4328 46.2226Z" fill="#E3073C"/>
<path d="M45.2041 35.5245C46.6133 34.121 48.2866 33.0077 50.1279 32.2482C51.9693 31.4886 53.9431 31.0977 55.936 31.0977C57.9294 31.0977 59.9028 31.4886 61.7441 32.2482C63.5854 33.0077 65.2587 34.121 66.668 35.5245L55.936 46.212L45.2041 35.5245Z" fill="#1F84EF"/>
</g>
<defs>
<clipPath id="clip0_293_3278">
<rect y="0.675781" width="80" height="80" rx="40" fill="white"/>
</clipPath>
</defs>
</svg>
