<svg width="371" height="17" viewBox="0 0 371 17" fill="none" xmlns="http://www.w3.org/2000/svg">
<g clipPath="url(#clip0_7_811)">
<path d="M9.09807 1.03906L11.1053 6.74339H17.6009L12.3458 10.2689L14.3531 15.9732L9.09807 12.4477L3.84301 15.9732L5.85027 10.2689L0.595215 6.74339H7.09082L9.09807 1.03906Z" fill="#FBB040"/>
</g>
<g clipPath="url(#clip1_7_811)">
<path d="M31.0981 1.03906L33.1053 6.74339H39.6009L34.3458 10.2689L36.3531 15.9732L31.0981 12.4477L25.843 15.9732L27.8503 10.2689L22.5952 6.74339H29.0908L31.0981 1.03906Z" fill="#FBB040"/>
</g>
<g clipPath="url(#clip2_7_811)">
<path d="M53.0981 1.03906L55.1053 6.74339H61.6009L56.3458 10.2689L58.3531 15.9732L53.0981 12.4477L47.843 15.9732L49.8503 10.2689L44.5952 6.74339H51.0908L53.0981 1.03906Z" fill="#FBB040"/>
</g>
<g clipPath="url(#clip3_7_811)">
<path d="M75.0981 1.03906L77.1053 6.74339H83.6009L78.3458 10.2689L80.3531 15.9732L75.0981 12.4477L69.843 15.9732L71.8503 10.2689L66.5952 6.74339H73.0908L75.0981 1.03906Z" fill="#FBB040"/>
</g>
<g clipPath="url(#clip4_7_811)">
<path d="M97.0981 1.03906L99.1053 6.74339H105.601L100.346 10.2689L102.353 15.9732L97.0981 12.4477L91.843 15.9732L93.8503 10.2689L88.5952 6.74339H95.0908L97.0981 1.03906Z" fill="#FBB040"/>
</g>
<defs>
<clipPath id="clip0_7_811">
<rect width="18" height="16" fill="white" transform="translate(0 0.675781)"/>
</clipPath>
<clipPath id="clip1_7_811">
<rect width="18" height="16" fill="white" transform="translate(22 0.675781)"/>
</clipPath>
<clipPath id="clip2_7_811">
<rect width="18" height="16" fill="white" transform="translate(44 0.675781)"/>
</clipPath>
<clipPath id="clip3_7_811">
<rect width="18" height="16" fill="white" transform="translate(66 0.675781)"/>
</clipPath>
<clipPath id="clip4_7_811">
<rect width="18" height="16" fill="white" transform="translate(88 0.675781)"/>
</clipPath>
</defs>
</svg>
