<svg width="26" height="25" viewBox="0 0 26 25" fill="none" xmlns="http://www.w3.org/2000/svg">
<mask id="mask0_7_566" style="mask-type:luminance" maskUnits="userSpaceOnUse" x="0" y="0" width="26" height="25">
<path d="M12.5688 16.8205C11.4231 16.8205 10.3243 16.3653 9.51413 15.5552C8.70397 14.745 8.24883 13.6462 8.24883 12.5005C8.24883 11.3547 8.70397 10.2559 9.51413 9.44577C10.3243 8.63561 11.4231 8.18047 12.5688 8.18047C13.7146 8.18047 14.8133 8.63561 15.6236 9.44577C16.4337 10.2559 16.8888 11.3547 16.8888 12.5005C16.8888 13.6462 16.4337 14.745 15.6236 15.5552C14.8133 16.3653 13.7146 16.8205 12.5688 16.8205ZM12.5688 18.2605C14.0965 18.2605 15.5615 17.6537 16.6417 16.5734C17.7219 15.4932 18.3288 14.0281 18.3288 12.5005C18.3288 10.9728 17.7219 9.50775 16.6417 8.42753C15.5615 7.34732 14.0965 6.74047 12.5688 6.74047C11.0412 6.74047 9.5761 7.34732 8.49589 8.42753C7.41568 9.50775 6.80883 10.9728 6.80883 12.5005C6.80883 14.0281 7.41568 15.4932 8.49589 16.5734C9.5761 17.6537 11.0412 18.2605 12.5688 18.2605ZM12.5688 0.980469C12.7598 0.980469 12.943 1.05633 13.0779 1.19135C13.213 1.32638 13.2888 1.50951 13.2888 1.70047V4.58047C13.2888 4.77142 13.213 4.95456 13.0779 5.08959C12.943 5.22461 12.7598 5.30047 12.5688 5.30047C12.3779 5.30047 12.1947 5.22461 12.0598 5.08959C11.9247 4.95456 11.8488 4.77142 11.8488 4.58047V1.70047C11.8488 1.50951 11.9247 1.32638 12.0598 1.19135C12.1947 1.05633 12.3779 0.980469 12.5688 0.980469ZM12.5688 19.7005C12.7598 19.7005 12.943 19.7763 13.0779 19.9114C13.213 20.0464 13.2888 20.2295 13.2888 20.4205V23.3005C13.2888 23.4914 13.213 23.6746 13.0779 23.8096C12.943 23.9446 12.7598 24.0205 12.5688 24.0205C12.3779 24.0205 12.1947 23.9446 12.0598 23.8096C11.9247 23.6746 11.8488 23.4914 11.8488 23.3005V20.4205C11.8488 20.2295 11.9247 20.0464 12.0598 19.9114C12.1947 19.7763 12.3779 19.7005 12.5688 19.7005ZM24.0888 12.5005C24.0888 12.6914 24.013 12.8746 23.8779 13.0096C23.743 13.1446 23.5598 13.2205 23.3688 13.2205H20.4888C20.2979 13.2205 20.1147 13.1446 19.9798 13.0096C19.8447 12.8746 19.7688 12.6914 19.7688 12.5005C19.7688 12.3095 19.8447 12.1264 19.9798 11.9914C20.1147 11.8563 20.2979 11.7805 20.4888 11.7805H23.3688C23.5598 11.7805 23.743 11.8563 23.8779 11.9914C24.013 12.1264 24.0888 12.3095 24.0888 12.5005ZM5.36883 12.5005C5.36883 12.6914 5.29297 12.8746 5.15794 13.0096C5.02292 13.1446 4.83978 13.2205 4.64883 13.2205H1.76883C1.57787 13.2205 1.39474 13.1446 1.25971 13.0096C1.12469 12.8746 1.04883 12.6914 1.04883 12.5005C1.04883 12.3095 1.12469 12.1264 1.25971 11.9914C1.39474 11.8563 1.57787 11.7805 1.76883 11.7805H4.64883C4.83978 11.7805 5.02292 11.8563 5.15794 11.9914C5.29297 12.1264 5.36883 12.3095 5.36883 12.5005ZM20.7149 4.35439C20.8499 4.48941 20.9257 4.67251 20.9257 4.86343C20.9257 5.05434 20.8499 5.23744 20.7149 5.37247L18.6788 7.41007C18.6118 7.47691 18.5324 7.52992 18.4449 7.56607C18.3575 7.60221 18.2638 7.62078 18.1692 7.62071C17.9782 7.62058 17.795 7.54455 17.6599 7.40935C17.5931 7.34241 17.5401 7.26295 17.5039 7.17552C17.4678 7.08809 17.4492 6.99441 17.4493 6.8998C17.4495 6.70874 17.5255 6.52555 17.6607 6.39055L19.6968 4.35439C19.8318 4.21941 20.015 4.14358 20.2058 4.14358C20.3968 4.14358 20.5799 4.21941 20.7149 4.35439ZM7.47699 17.5923C7.61196 17.7273 7.68779 17.9105 7.68779 18.1013C7.68779 18.2922 7.61196 18.4754 7.47699 18.6104L5.44083 20.6465C5.30504 20.7777 5.12316 20.8503 4.93438 20.8486C4.74559 20.847 4.56501 20.7713 4.43152 20.6378C4.29802 20.5043 4.2223 20.3237 4.22067 20.135C4.21903 19.9461 4.29159 19.7643 4.42275 19.6285L6.45891 17.5923C6.59393 17.4573 6.77703 17.3815 6.96795 17.3815C7.15886 17.3815 7.34197 17.4573 7.47699 17.5923ZM20.7149 20.6465C20.5799 20.7815 20.3968 20.8574 20.2058 20.8574C20.015 20.8574 19.8318 20.7815 19.6968 20.6465L17.6607 18.6104C17.5295 18.4745 17.457 18.2927 17.4586 18.1039C17.4602 17.9152 17.536 17.7346 17.6694 17.601C17.803 17.4676 17.9835 17.3919 18.1723 17.3902C18.3611 17.3886 18.5429 17.4612 18.6788 17.5923L20.7149 19.6285C20.8499 19.7634 20.9257 19.9466 20.9257 20.1375C20.9257 20.3284 20.8499 20.5116 20.7149 20.6465ZM7.47699 7.41007C7.34197 7.54504 7.15886 7.62087 6.96795 7.62087C6.77703 7.62087 6.59393 7.54504 6.45891 7.41007L4.42275 5.37247C4.35398 5.30606 4.29913 5.22661 4.2614 5.13876C4.22366 5.05092 4.2038 4.95644 4.20296 4.86084C4.20214 4.76524 4.22035 4.67043 4.25655 4.58194C4.29276 4.49345 4.34623 4.41306 4.41382 4.34546C4.48142 4.27786 4.56181 4.2244 4.65031 4.18819C4.73879 4.15199 4.8336 4.13378 4.92919 4.13461C5.0248 4.13544 5.11927 4.1553 5.20711 4.19303C5.29496 4.23077 5.37441 4.28562 5.44083 4.35439L7.47699 6.39055C7.54404 6.45743 7.59724 6.53688 7.63353 6.62436C7.66983 6.71183 7.68851 6.8056 7.68851 6.90031C7.68851 6.99501 7.66983 7.08879 7.63353 7.17626C7.59724 7.26374 7.54404 7.34319 7.47699 7.41007Z" fill="white" stroke="white" strokeWidth="1.92"/>
</mask>
<g mask="url(#mask0_7_566)">
<path d="M12.5688 16.8205C11.4231 16.8205 10.3243 16.3653 9.51413 15.5552C8.70397 14.745 8.24883 13.6462 8.24883 12.5005C8.24883 11.3547 8.70397 10.2559 9.51413 9.44577C10.3243 8.63561 11.4231 8.18047 12.5688 8.18047C13.7146 8.18047 14.8133 8.63561 15.6236 9.44577C16.4337 10.2559 16.8888 11.3547 16.8888 12.5005C16.8888 13.6462 16.4337 14.745 15.6236 15.5552C14.8133 16.3653 13.7146 16.8205 12.5688 16.8205ZM12.5688 18.2605C14.0965 18.2605 15.5615 17.6537 16.6417 16.5734C17.7219 15.4932 18.3288 14.0281 18.3288 12.5005C18.3288 10.9728 17.7219 9.50775 16.6417 8.42753C15.5615 7.34732 14.0965 6.74047 12.5688 6.74047C11.0412 6.74047 9.5761 7.34732 8.49589 8.42753C7.41568 9.50775 6.80883 10.9728 6.80883 12.5005C6.80883 14.0281 7.41568 15.4932 8.49589 16.5734C9.5761 17.6537 11.0412 18.2605 12.5688 18.2605ZM12.5688 0.980469C12.7598 0.980469 12.943 1.05633 13.0779 1.19135C13.213 1.32638 13.2888 1.50951 13.2888 1.70047V4.58047C13.2888 4.77142 13.213 4.95456 13.0779 5.08959C12.943 5.22461 12.7598 5.30047 12.5688 5.30047C12.3779 5.30047 12.1947 5.22461 12.0598 5.08959C11.9247 4.95456 11.8488 4.77142 11.8488 4.58047V1.70047C11.8488 1.50951 11.9247 1.32638 12.0598 1.19135C12.1947 1.05633 12.3779 0.980469 12.5688 0.980469ZM12.5688 19.7005C12.7598 19.7005 12.943 19.7763 13.0779 19.9114C13.213 20.0464 13.2888 20.2295 13.2888 20.4205V23.3005C13.2888 23.4914 13.213 23.6746 13.0779 23.8096C12.943 23.9446 12.7598 24.0205 12.5688 24.0205C12.3779 24.0205 12.1947 23.9446 12.0598 23.8096C11.9247 23.6746 11.8488 23.4914 11.8488 23.3005V20.4205C11.8488 20.2295 11.9247 20.0464 12.0598 19.9114C12.1947 19.7763 12.3779 19.7005 12.5688 19.7005ZM24.0888 12.5005C24.0888 12.6914 24.013 12.8746 23.8779 13.0096C23.743 13.1446 23.5598 13.2205 23.3688 13.2205H20.4888C20.2979 13.2205 20.1147 13.1446 19.9798 13.0096C19.8447 12.8746 19.7688 12.6914 19.7688 12.5005C19.7688 12.3095 19.8447 12.1264 19.9798 11.9914C20.1147 11.8563 20.2979 11.7805 20.4888 11.7805H23.3688C23.5598 11.7805 23.743 11.8563 23.8779 11.9914C24.013 12.1264 24.0888 12.3095 24.0888 12.5005ZM5.36883 12.5005C5.36883 12.6914 5.29297 12.8746 5.15794 13.0096C5.02292 13.1446 4.83978 13.2205 4.64883 13.2205H1.76883C1.57787 13.2205 1.39474 13.1446 1.25971 13.0096C1.12469 12.8746 1.04883 12.6914 1.04883 12.5005C1.04883 12.3095 1.12469 12.1264 1.25971 11.9914C1.39474 11.8563 1.57787 11.7805 1.76883 11.7805H4.64883C4.83978 11.7805 5.02292 11.8563 5.15794 11.9914C5.29297 12.1264 5.36883 12.3095 5.36883 12.5005ZM20.7149 4.35439C20.8499 4.48941 20.9257 4.67251 20.9257 4.86343C20.9257 5.05434 20.8499 5.23744 20.7149 5.37247L18.6788 7.41007C18.6118 7.47691 18.5324 7.52992 18.4449 7.56607C18.3575 7.60221 18.2638 7.62078 18.1692 7.62071C17.9782 7.62058 17.795 7.54455 17.6599 7.40935C17.5931 7.34241 17.5401 7.26295 17.5039 7.17552C17.4678 7.08809 17.4492 6.99441 17.4493 6.8998C17.4495 6.70874 17.5255 6.52555 17.6607 6.39055L19.6968 4.35439C19.8318 4.21941 20.015 4.14358 20.2058 4.14358C20.3968 4.14358 20.5799 4.21941 20.7149 4.35439ZM7.47699 17.5923C7.61196 17.7273 7.68779 17.9105 7.68779 18.1013C7.68779 18.2922 7.61196 18.4754 7.47699 18.6104L5.44083 20.6465C5.30504 20.7777 5.12316 20.8503 4.93438 20.8486C4.74559 20.847 4.56501 20.7713 4.43152 20.6378C4.29802 20.5043 4.2223 20.3237 4.22067 20.135C4.21903 19.9461 4.29159 19.7643 4.42275 19.6285L6.45891 17.5923C6.59393 17.4573 6.77703 17.3815 6.96795 17.3815C7.15886 17.3815 7.34197 17.4573 7.47699 17.5923ZM20.7149 20.6465C20.5799 20.7815 20.3968 20.8574 20.2058 20.8574C20.015 20.8574 19.8318 20.7815 19.6968 20.6465L17.6607 18.6104C17.5295 18.4745 17.457 18.2927 17.4586 18.1039C17.4602 17.9152 17.536 17.7346 17.6694 17.601C17.803 17.4676 17.9835 17.3919 18.1723 17.3902C18.3611 17.3886 18.5429 17.4612 18.6788 17.5923L20.7149 19.6285C20.8499 19.7634 20.9257 19.9466 20.9257 20.1375C20.9257 20.3284 20.8499 20.5116 20.7149 20.6465ZM7.47699 7.41007C7.34197 7.54504 7.15886 7.62087 6.96795 7.62087C6.77703 7.62087 6.59393 7.54504 6.45891 7.41007L4.42275 5.37247C4.35398 5.30606 4.29913 5.22661 4.2614 5.13876C4.22366 5.05092 4.2038 4.95644 4.20296 4.86084C4.20214 4.76524 4.22035 4.67043 4.25655 4.58194C4.29276 4.49345 4.34623 4.41306 4.41382 4.34546C4.48142 4.27786 4.56181 4.2244 4.65031 4.18819C4.73879 4.15199 4.8336 4.13378 4.92919 4.13461C5.0248 4.13544 5.11927 4.1553 5.20711 4.19303C5.29496 4.23077 5.37441 4.28562 5.44083 4.35439L7.47699 6.39055C7.54404 6.45743 7.59724 6.53688 7.63353 6.62436C7.66983 6.71183 7.68851 6.8056 7.68851 6.90031C7.68851 6.99501 7.66983 7.08879 7.63353 7.17626C7.59724 7.26374 7.54404 7.34319 7.47699 7.41007Z" fill="black" stroke="white" strokeWidth="1.92"/>
</g>
</svg>
