<svg width="128" height="25" viewBox="0 0 128 25" fill="none" xmlns="http://www.w3.org/2000/svg">
<g clipPath="url(#clip0_7_712)">
<mask id="mask0_7_712" style="mask-type:luminance" maskUnits="userSpaceOnUse" x="0" y="0" width="128" height="25">
<path d="M0.0351562 0H127.965V25H0.0351562V0Z" fill="white"/>
</mask>
<g mask="url(#mask0_7_712)">
<path d="M120.735 19.0341V0H114.477V20.4545C114.477 22.5852 116.285 24.4318 118.371 24.4318H127.965V18.892C127.965 19.0341 120.735 19.0341 120.735 19.0341Z" fill="#9BADAF"/>
</g>
<mask id="mask1_7_712" style="mask-type:luminance" maskUnits="userSpaceOnUse" x="0" y="0" width="128" height="25">
<path d="M0.0351562 0H127.965V25H0.0351562V0Z" fill="white"/>
</mask>
<g mask="url(#mask1_7_712)">
<path d="M20.6152 0H0.0351562V1.42045C0.0351562 3.69318 1.84287 5.39773 3.92868 5.39773H7.12694V20.3125C7.12694 22.5852 8.79559 24.2898 11.0205 24.2898H13.3844V5.53977H20.4762C20.6152 5.53977 20.6152 0 20.6152 0Z" fill="#9BADAF"/>
</g>
<mask id="mask2_7_712" style="mask-type:luminance" maskUnits="userSpaceOnUse" x="0" y="0" width="128" height="25">
<path d="M0.0351562 0H127.965V25H0.0351562V0Z" fill="white"/>
</mask>
<g mask="url(#mask2_7_712)">
<path d="M84.9971 8.80682C84.58 8.09659 84.0237 7.38636 83.1894 6.96023C82.3551 6.53409 81.2427 6.25 79.8521 6.25C78.6006 6.25 77.6272 6.53409 76.7929 6.96023C75.9586 7.38636 75.1243 8.09659 74.429 9.09091C74.0118 7.95455 73.3165 7.24432 72.3432 6.81818C71.5088 6.39205 70.3964 6.25 69.284 6.25C68.1715 6.25 67.1981 6.53409 66.3638 7.10227C65.5295 7.67045 64.8342 8.38068 64.278 9.23295V6.67614H58.7158V20.4545C58.7158 22.5852 60.5235 24.4318 62.6093 24.4318H64.4171V15.767C64.4171 13.9205 64.6952 12.642 65.1123 11.9318C65.5295 11.2216 66.3638 10.9375 67.3372 10.9375C68.1715 10.9375 68.7277 11.2216 69.0059 11.7898C69.284 12.358 69.5621 13.2102 69.5621 14.3466V20.4545C69.5621 22.7273 71.2307 24.4318 73.4556 24.4318H75.2633V15.767V13.7784C75.2633 13.2102 75.4024 12.642 75.6805 12.2159C75.8195 11.9318 76.0976 11.5057 76.5148 11.3636C76.932 11.0795 77.3491 11.0795 77.9053 11.0795C78.6006 11.0795 79.1568 11.3636 79.7131 11.9318C80.1302 12.5 80.4083 13.2102 80.4083 14.2045V20.5966C80.4083 22.7273 82.216 24.5739 84.3019 24.5739H86.1096V13.9205C86.1096 13.0682 86.1096 12.2159 85.9705 11.3636C85.6924 10.3693 85.4143 9.51705 84.9971 8.80682Z" fill="#9BADAF"/>
</g>
<mask id="mask3_7_712" style="mask-type:luminance" maskUnits="userSpaceOnUse" x="0" y="0" width="128" height="25">
<path d="M0.0351562 0H127.965V25H0.0351562V0Z" fill="white"/>
</mask>
<g mask="url(#mask3_7_712)">
<path d="M104.465 0V15.0568L96.1221 0H89.7256V20.4545C89.7256 22.5852 91.5333 24.4318 93.6191 24.4318H95.5659V9.23295L103.909 24.4318H110.306V0H104.465Z" fill="#9BADAF"/>
</g>
<mask id="mask4_7_712" style="mask-type:luminance" maskUnits="userSpaceOnUse" x="0" y="0" width="128" height="25">
<path d="M0.0351562 0H127.965V25H0.0351562V0Z" fill="white"/>
</mask>
<g mask="url(#mask4_7_712)">
<path d="M35.9112 12.7841C35.6331 11.5057 35.0769 10.3693 34.3816 9.375C33.6863 8.38068 32.7129 7.67045 31.4614 7.10227C30.349 6.53409 28.9585 6.25 27.4289 6.25C26.1774 6.25 24.9259 6.53409 23.8134 6.96023C22.701 7.38636 21.7276 8.09659 20.7542 8.94886C19.9199 9.80114 19.2246 10.7955 18.6684 11.9318C18.1122 13.0682 17.9731 14.3466 17.9731 15.767C17.9731 17.1875 18.2513 18.608 18.6684 19.7443C19.0856 20.8807 19.7809 21.875 20.6152 22.7273C21.4495 23.5795 22.4229 24.1477 23.6744 24.5739C24.7868 25 26.1774 25.142 27.5679 25.142C28.5413 25.142 29.5147 25 30.349 24.858C31.3224 24.5739 32.1567 24.2898 32.852 23.8636C33.6863 23.4375 34.2425 22.7273 34.7987 22.017L34.9378 21.875C35.0769 21.5909 35.2159 21.3068 35.2159 20.8807C35.2159 20.0284 34.5206 19.3182 33.6863 19.3182H30.7662C30.4881 20.0284 30.0709 20.4545 29.5147 20.7386C28.9585 21.0227 28.2632 21.1648 27.5679 21.1648C26.3164 21.1648 25.4821 20.7386 24.7868 20.0284C24.0915 19.3182 23.8134 18.3239 23.6744 17.0455H36.1893C36.1893 15.483 36.1893 14.0625 35.9112 12.7841ZM23.5353 13.7784C23.6744 12.642 24.0915 11.7898 24.7868 11.0795C25.4821 10.3693 26.3164 10.0852 27.2898 10.0852C28.2632 10.0852 29.0975 10.3693 29.6537 11.2216C30.2099 11.9318 30.6271 12.7841 30.6271 13.7784H23.5353Z" fill="#9BADAF"/>
</g>
<mask id="mask5_7_712" style="mask-type:luminance" maskUnits="userSpaceOnUse" x="0" y="0" width="128" height="25">
<path d="M0.0351562 0H127.965V25H0.0351562V0Z" fill="white"/>
</mask>
<g mask="url(#mask5_7_712)">
<path d="M55.24 22.3026C55.24 21.4503 55.101 20.7401 55.101 20.0298V12.0753C55.101 10.7969 54.8229 9.80256 54.4057 9.09233C53.9886 8.3821 53.2933 7.67187 52.598 7.24574C51.9027 6.8196 50.9294 6.53551 49.956 6.39347C48.9826 6.25142 48.0092 6.10938 46.8968 6.10938C45.9234 6.10938 44.95 6.25142 43.9766 6.39347C43.0032 6.53551 42.1689 6.96165 41.3346 7.38778C40.5003 7.81392 39.944 8.52415 39.3878 9.23438C38.8316 9.9446 38.6926 10.9389 38.5535 12.2173H43.8376C44.1157 10.7969 45.0891 9.9446 46.7577 9.9446C47.0358 9.9446 47.3139 9.9446 47.7311 10.0866C48.0092 10.0866 48.2873 10.2287 48.5654 10.3707C48.8435 10.5128 49.1216 10.6548 49.2607 10.9389C49.3998 11.223 49.5388 11.5071 49.5388 11.7912C49.5388 12.3594 49.3998 12.7855 49.1216 12.9276C48.8435 13.2116 48.4264 13.3537 48.0092 13.4957C47.3139 13.6378 46.6187 13.7798 45.9234 13.7798C45.2281 13.7798 44.3938 13.9219 43.6985 14.0639C43.1423 14.206 42.447 14.4901 41.7518 14.6321C41.0565 14.9162 40.5003 15.2003 39.944 15.6264C39.3878 16.0526 38.9707 16.6207 38.6926 17.1889C38.4144 17.8991 38.2754 18.6094 38.2754 19.6037C38.2754 20.456 38.4144 21.3082 38.6926 22.0185C38.9707 22.7287 39.3878 23.2969 39.944 23.723C40.5003 24.1491 41.0565 24.4332 41.8908 24.7173C42.5861 25.0014 43.4204 25.0014 44.2547 25.0014C45.3672 25.0014 46.3406 24.8594 47.3139 24.4332C48.0092 24.1492 48.7045 23.8651 49.3998 23.2969L49.6779 23.0128L49.956 22.7287C50.6512 23.723 51.7637 24.4332 53.1542 24.4332H56.0744C55.5182 23.723 55.3791 23.0128 55.24 22.3026ZM48.9826 20.1719C48.4264 21.0241 47.592 21.4503 46.2015 21.4503C45.5062 21.4503 44.95 21.3082 44.5328 21.0241C44.1157 20.7401 43.8376 20.1719 43.8376 19.4616C43.8376 18.7514 44.1157 18.1832 44.5328 17.8991C44.95 17.6151 45.5062 17.331 46.2015 17.1889C46.8968 17.0469 47.453 16.9048 48.1483 16.7628C48.8435 16.6207 49.3998 16.4787 49.6779 16.1946C49.8169 18.0412 49.5388 19.3196 48.9826 20.1719Z" fill="#9BADAF"/>
</g>
</g>
<defs>
<clipPath id="clip0_7_712">
<rect width="128" height="25" fill="white"/>
</clipPath>
</defs>
</svg>
