<svg width="19" height="15" viewBox="0 0 19 15" fill="none" xmlns="http://www.w3.org/2000/svg">
<g clipPath="url(#clip0_7_123)">
<path d="M16.3024 2.81105L17.375 1.57818C17.6855 1.24427 17.7702 0.987425 17.7984 0.859C16.9516 1.32133 16.1613 1.47544 15.6532 1.47544H15.4556L15.3427 1.3727C14.6653 0.833315 13.8185 0.550781 12.9153 0.550781C10.9395 0.550781 9.3871 2.04051 9.3871 3.7614C9.3871 3.86414 9.3871 4.01825 9.41532 4.12099L9.5 4.63468L8.90726 4.609C5.29435 4.50626 2.33065 1.68092 1.85081 1.1929C1.06048 2.47715 1.5121 3.71003 1.99194 4.48057L2.95161 5.91893L1.42742 5.14838C1.45565 6.22715 1.90726 7.07475 2.78226 7.69119L3.54435 8.20489L2.78226 8.48743C3.2621 9.79736 4.33468 10.3367 5.125 10.5422L6.16935 10.7991L5.18145 11.4155C3.60081 12.4429 1.625 12.3659 0.75 12.2888C2.52823 13.419 4.64516 13.6758 6.1129 13.6758C7.21371 13.6758 8.03226 13.5731 8.22984 13.496C16.1331 11.8008 16.5 5.37955 16.5 4.0953V3.91551L16.6694 3.81277C17.629 2.99085 18.0242 2.5542 18.25 2.29736C18.1653 2.32304 18.0524 2.37441 17.9395 2.4001L16.3024 2.81105Z" fill="#CED3F6"/>
</g>
<defs>
<clipPath id="clip0_7_123">
<rect width="19" height="14" fill="white" transform="translate(0 0.550781)"/>
</clipPath>
</defs>
</svg>
