<svg width="37" height="37" viewBox="0 0 37 37" fill="none" xmlns="http://www.w3.org/2000/svg">
<rect x="0.953125" y="0.46875" width="36" height="36" rx="6" fill="#4A6CF7" fill-opacity="0.1"/>
<g clipPath="url(#clip0_7_89)">
<path d="M25.5055 13.729L26.5781 12.4962C26.8886 12.1622 26.9733 11.9054 27.0015 11.777C26.1547 12.2393 25.3644 12.3934 24.8563 12.3934H24.6587L24.5458 12.2907C23.8684 11.7513 23.0216 11.4688 22.1184 11.4688C20.1426 11.4688 18.5902 12.9585 18.5902 14.6794C18.5902 14.7821 18.5902 14.9362 18.6184 15.039L18.7031 15.5526L18.1104 15.527C14.4975 15.4242 11.5338 12.5989 11.0539 12.1109C10.2636 13.3951 10.7152 14.628 11.1951 15.3985L12.1547 16.8369L10.6305 16.0663C10.6588 17.1451 11.1104 17.9927 11.9854 18.6092L12.7475 19.1229L11.9854 19.4054C12.4652 20.7153 13.5378 21.2547 14.3281 21.4602L15.3725 21.717L14.3846 22.3335C12.8039 23.3609 10.8281 23.2838 9.95312 23.2067C11.7314 24.337 13.8483 24.5938 15.316 24.5938C16.4168 24.5938 17.2354 24.491 17.433 24.4139C25.3362 22.7188 25.7031 16.2975 25.7031 15.0133V14.8335L25.8725 14.7307C26.8321 13.9088 27.2273 13.4722 27.4531 13.2153C27.3684 13.241 27.2555 13.2924 27.1426 13.3181L25.5055 13.729Z" fill="#F4F4F4"/>
</g>
<defs>
<clipPath id="clip0_7_89">
<rect width="18" height="14" fill="white" transform="translate(9.95312 11.4688)"/>
</clipPath>
</defs>
</svg>
