<svg width="18" height="15" viewBox="0 0 18 15" fill="none" xmlns="http://www.w3.org/2000/svg">
<g clipPath="url(#clip0_7_126)">
<path d="M17.5058 2.62197C17.3068 1.79958 16.7099 1.15995 15.9423 0.946744C14.5778 0.550781 9.0627 0.550781 9.0627 0.550781C9.0627 0.550781 3.54766 0.550781 2.18311 0.946744C1.41555 1.15995 0.818561 1.79958 0.619565 2.62197C0.25 4.11444 0.25 7.16031 0.25 7.16031C0.25 7.16031 0.25 10.2366 0.619565 11.6987C0.818561 12.5211 1.41555 13.1607 2.18311 13.3739C3.54766 13.7699 9.0627 13.7699 9.0627 13.7699C9.0627 13.7699 14.5778 13.7699 15.9423 13.3739C16.7099 13.1607 17.3068 12.5211 17.5058 11.6987C17.8754 10.2366 17.8754 7.16031 17.8754 7.16031C17.8754 7.16031 17.8754 4.11444 17.5058 2.62197ZM7.30016 9.99296V4.32765L11.8771 7.16031L7.30016 9.99296Z" fill="#CED3F6"/>
</g>
<defs>
<clipPath id="clip0_7_126">
<rect width="18" height="14" fill="white" transform="translate(0 0.550781)"/>
</clipPath>
</defs>
</svg>
